<svg xmlns="http://www.w3.org/2000/svg" viewBox="0 0 130 129.01"><title>logo</title><g id="Layer_2" data-name="Layer 2"><g id="Layer_2-2" data-name="Layer 2"><path d="M48,72.7v40.79L26.11,100.84A21.38,21.38,0,0,0,30,88.51,21.51,21.51,0,0,0,8.5,67H8.2V45.08L43.5,65.46v0A8,8,0,0,0,48,72.7Z" style="fill:#fff"/><path d="M122.8,45.08V67h-.3a21.49,21.49,0,0,0-17.6,33.84L84,112.91V72.12a8,8,0,0,0,3.5-6.61v0Z" style="fill:#fff"/><path d="M103.76,12.18,68.46,32.56a8,8,0,0,0-7.92,0L25.24,12.18,46.34,0A21.45,21.45,0,0,0,64.5,10,21.45,21.45,0,0,0,82.66,0Z" style="fill:#fff"/><path d="M122,14a8,8,0,0,0-8,8,2.26,2.26,0,0,0,0,.26l-10.25,5.91L68.46,48.56a8,8,0,0,0-7.92,0L25.24,28.18,16,22.83A7.39,7.39,0,0,0,16,22a8,8,0,1,0-4.76,7.32l10,5.75L56.5,55.46v0A8,8,0,0,0,61,62.7v51.39a8,8,0,1,0,8,0v-52a8,8,0,0,0,3.5-6.61v0l35.3-20.38,10.43-6A7.87,7.87,0,0,0,122,30a8,8,0,0,0,0-16ZM8,26a4,4,0,0,1,0-8,4,4,0,0,1,3.61,2.31h0A4,4,0,0,1,8,26Zm52.5,29.5a4,4,0,0,1,1.94-3.42,3.95,3.95,0,0,1,4.12,0,4,4,0,0,1,1.94,3.42A4,4,0,0,1,67,58.6l-.07.05a4,4,0,0,1-4.94,0A.18.18,0,0,1,62,58.6a3.85,3.85,0,0,1-1-1.16A3.93,3.93,0,0,1,60.5,55.51ZM65,125a4,4,0,1,1,4-4A4,4,0,0,1,65,125Zm57-99a4,4,0,0,1-3-6.61h0A4,4,0,0,1,122,18a4,4,0,0,1,0,8Z" style="fill:#fff"/><line x1="27.76" y1="84.29" x2="27.75" y2="84.29" style="fill:#fff;stroke:#000;stroke-miterlimit:10"/></g></g></svg>