<svg xmlns="http://www.w3.org/2000/svg" viewBox="0 0 575.38 295.47"><title>bg-pattern</title><g id="Layer_2" data-name="Layer 2"><g id="Layer_1-2" data-name="Layer 1"><path d="M0,10.74v.92l13.66,7.73c.33.18.62.42,1.12.76l-1.38.8L0,28.48v.94l13.51-8L15,20.57c0,.64.1,1.06.09,1.48-.08,7.56-.2,15.12-.24,22.67a2.22,2.22,0,0,1-1.26,2.19q-6.83,4-13.62,8v.58q7-3.92,14-7.87a2.22,2.22,0,0,1,2.53,0c6.61,3.78,13.25,7.51,19.87,11.26.33.19.64.42,1.2.78-1.15.66-2.07,1.2-3,1.72-6,3.37-12,6.73-18,10.13a2.22,2.22,0,0,1-2.53,0q-7-4-14-8v.68c5.67,3.25,12.84,7.52,14.76,8.89q.11,12.55.23,25.26c-.75-.15-8.73-4.7-15-8.43v.82l13.26,7.5c.41.23.8.5,1.36.85-.5.34-.84.6-1.2.8L0,107.47v.76l13.29-7.84,1.53-.88c0,.63.1,1,.1,1.46-.08,7.61-.18,15.21-.25,22.82a1.9,1.9,0,0,1-1,1.91q-6.86,4-13.69,8v.75q7-3.92,14-7.86a2,2,0,0,1,2.27,0c6.64,3.8,13.32,7.55,20,11.32.33.18.63.4,1.08.7-.43.29-.72.53-1,.71Q26.19,145,16.11,150.65a1.78,1.78,0,0,1-2,0q-7-4-14.1-8v.72q6.83,4.05,13.67,8.09a1.54,1.54,0,0,1,.9,1.49c.05,7.91.13,15.82.2,23.73,0,.19,0,.38-.08.91L0,168.92v.9l13.47,7.63c.28.16.52.39.89.66-.49.31-.83.56-1.19.77L0,186.29v.88l9.65-5.66c1.6-.93,3.21-1.85,5.06-2.92,0,.67.06,1.14.06,1.61-.08,7.51-.19,15-.24,22.54a2.23,2.23,0,0,1-1.26,2.2Q6.62,208.81,0,212.74v.56q7-3.93,14-7.87a1.58,1.58,0,0,1,1.76-.08q10.36,5.9,20.74,11.76a6.71,6.71,0,0,1,.64.5l-1.44.83c-6.5,3.66-13,7.29-19.5,11a2.33,2.33,0,0,1-2.67,0Q6.78,225.56,0,221.75v.73l13.31,7.88A1.76,1.76,0,0,1,14.44,232c0,7.85.12,15.71.19,23.57,0,.24,0,.48-.06.87a5.7,5.7,0,0,1-.94-.33L0,248.05v.9l13.05,7.38c.36.21.7.47,1.22.81l-1.4.81L0,265.2V266l13.65-8a8.49,8.49,0,0,1,.85-.36c0,.59.06,1,.06,1.36q-.13,11.5-.25,23a1.78,1.78,0,0,1-.93,1.79Q6.68,287.59,0,291.55v.69q6.86-3.86,13.72-7.73a1.69,1.69,0,0,1,1.89-.1q9.76,5.56,19.56,11.07h1.31c-4-2-19.11-10.92-21.23-12.49q-.11-12.55-.23-25.27c1.16.29,19.79,11.19,22.12,12.91q.11,12.35.23,24.85h.51c0-.36,0-.66,0-.95.08-7.51.2-15,.23-22.55a2.32,2.32,0,0,1,1.36-2.29c6.5-3.78,13-7.62,19.45-11.43.36-.21.75-.38,1.3-.66,0,.63.08,1.1.07,1.56-.08,7.52-.19,15-.24,22.55a2.23,2.23,0,0,1-1.23,2.21c-6.5,3.78-13,7.63-19.44,11.45l-.19.11h.66q9.74-5.46,19.46-10.94a1.9,1.9,0,0,1,2.14-.08c6.46,3.7,13,7.35,19.43,11h1L60.95,283.1c-.08-8.45-.15-16.87-.23-25.33,1.15.31,20.23,11.49,22.06,12.9.07,8.14.15,16.33.22,24.8h.53a3.92,3.92,0,0,1-.06-.63q.12-11.63.25-23.26a1.57,1.57,0,0,1,.79-1.57q6.43-3.77,12.85-7.57h0L103,259.1l1.87-1.1c.16-.09.35-.18.56-.28l.18-.07a8.12,8.12,0,0,1,.12,1.1c-.08,7.7-.18,15.41-.25,23.11a1.78,1.78,0,0,1-.94,1.78c-2.46,1.43-4.91,2.88-7.37,4.33V288L84.6,295.47h1L98,288.52l7.1-4a3.73,3.73,0,0,1,.4-.19l.24-.08h.06a1.54,1.54,0,0,1,.67,0,2.14,2.14,0,0,1,.5.21c6.47,3.69,13,7.35,19.45,11h1.12q-10-5.93-20.06-11.88a1.45,1.45,0,0,1-.86-1.37q-.07-12-.19-24a4.54,4.54,0,0,1,.09-.6c.45.22.81.39,1.13.59q9.83,5.81,19.65,11.63a1.76,1.76,0,0,1,1.12,1.67c0,7.86.12,15.71.19,23.57,0,.12,0,.25,0,.4h.69a3.62,3.62,0,0,1-.05-.6q.12-11.63.25-23.26a1.58,1.58,0,0,1,.8-1.57q10.33-6,20.64-12.15l.34-.15.18-.06c0,.5.07.87.07,1.23-.09,7.66-.18,15.31-.26,23a1.78,1.78,0,0,1-.91,1.8c-6.7,3.91-13.36,7.86-20,11.8h.88c6.44-3.63,12.89-7.23,19.32-10.88a2.38,2.38,0,0,1,1.86-.28,2.87,2.87,0,0,1,.4.18c6.45,3.69,12.92,7.33,19.39,11h1.49c-3.61-1.78-17.75-10-21.28-12.47q-.11-12.57-.23-25.14c.68.24,3,1.49,6,3.16L172,269.28c.8.5,1.49,1,2,1.31.08,8.23.15,16.54.23,24.88h.67a4.59,4.59,0,0,1-.06-.67c.08-7.71.18-15.42.26-23.13a2,2,0,0,1,.43-1.4l.09-.09a2.12,2.12,0,0,1,.25-.2l.29-.19q8.41-4.91,16.8-9.86c1-.57,1.92-1.17,2.89-1.74.32-.19.68-.35,1.12-.56l.08,0c0,.56.06.93.06,1.3q-.13,11.5-.25,23a1.78,1.78,0,0,1-.93,1.79c-6.69,3.91-13.36,7.86-20,11.79h1.05q9.74-5.49,19.47-11a3.72,3.72,0,0,1,.42-.21l.1,0,.22-.06a1.38,1.38,0,0,1,.5,0,1.89,1.89,0,0,1,.5.2q9.76,5.56,19.56,11.07h1.46c-1.65-.85-5.24-2.88-9-5.08h0l-6-3.55c-2.54-1.52-4.67-2.83-5.72-3.53a1.94,1.94,0,0,1-.46-.91q-.1-12.07-.22-24.29l0-.32c1,.41,4.86,2.6,9.13,5.08l3.29,1.95v0c4.41,2.6,8.52,5.09,9.53,5.84q.11,12.35.23,24.85h.65c0-.36,0-.66,0-.95.08-7.51.2-15,.23-22.55a2.32,2.32,0,0,1,1.36-2.29c6.5-3.78,13-7.62,19.45-11.43.33-.19.69-.36,1.16-.59,0,.59.07,1,.07,1.49-.08,7.52-.19,15-.24,22.55a2.23,2.23,0,0,1-1.23,2.21c-6.5,3.78-13,7.63-19.44,11.45l-.19.11h.81Q232.25,290,242,284.54a2.6,2.6,0,0,1,1-.36,1.91,1.91,0,0,1,1,.28c6.46,3.7,13,7.35,19.43,11h1.12L243.63,283.1c-.08-8.43-.15-16.83-.23-25.27,2.1.89,20.14,11.47,21.92,12.85.07,8.14.15,16.33.22,24.8h.68a3.91,3.91,0,0,1-.06-.63q.12-11.63.25-23.26a1.57,1.57,0,0,1,.79-1.57q10.35-6.07,20.68-12.18a3.66,3.66,0,0,1,.47-.19v0c0,.48.07.85.07,1.2-.09,7.66-.19,15.31-.25,23a1.9,1.9,0,0,1-1,1.88c-6.68,3.9-13.33,7.84-20,11.76h1.17Q278,290,287.73,284.56a2.33,2.33,0,0,1,1-.33,1.8,1.8,0,0,1,.88.26c6.45,3.69,12.93,7.33,19.4,11h1.12q-10-5.9-19.93-11.79a1.56,1.56,0,0,1-1-1.46c0-8-.13-15.9-.19-23.86a7,7,0,0,1,.09-.74c.53.28.92.48,1.3.7,6.47,3.83,12.92,7.68,19.4,11.47a2.1,2.1,0,0,1,1.21,2.06c0,7.57.12,15.12.18,22.69,0,.29,0,.59,0,.93h.7a4.2,4.2,0,0,1,0-.62c.08-7.7.18-15.41.25-23.11a1.67,1.67,0,0,1,.82-1.7q10.3-6,20.56-12.1a5,5,0,0,1,.57-.25c0,.49.06.81.06,1.13-.09,7.71-.19,15.41-.25,23.11a1.78,1.78,0,0,1-.95,1.78c-6.67,3.9-13.32,7.84-20,11.76h.87c6.39-3.59,12.79-7.17,19.16-10.8a2.86,2.86,0,0,1,1.43-.44,2.82,2.82,0,0,1,1.22.41c6.34,3.65,12.72,7.23,19.09,10.83h1.46C352.4,293.58,338,285.13,335,283c-.08-8.2-.15-16.5-.23-25.17a35.06,35.06,0,0,1,3.5,1.78l18.13,10.74.28.19q.11,12.44.23,24.92h.67a1.66,1.66,0,0,1-.07-.42c.08-7.86.19-15.71.24-23.57a1.8,1.8,0,0,1,1.13-1.68q8.41-4.91,16.8-9.86c1-.57,1.92-1.17,2.89-1.74.32-.19.69-.35,1.13-.57,0,.55.08,1,.07,1.35q-.13,11.42-.25,22.84a2.43,2.43,0,0,1-.24,1.24l0,0a1.46,1.46,0,0,1-.25.3,2.13,2.13,0,0,1-.29.22l-.06,0c-6.71,3.91-13.39,7.87-20.08,11.81h1.06q9.76-5.5,19.51-11a2.12,2.12,0,0,1,.87-.3,1.52,1.52,0,0,1,.74.21q6,3.4,12,6.78v-.06l7.7,4.36h1.31c-1.63-.84-5.14-2.83-8.87-5v-.09q-5.27-3.12-10.55-6.22l-.74-.47a2.17,2.17,0,0,1-1-2c0-7.52-.12-15-.18-22.55,0-.41,0-.83.06-1.35.59.25,2.28,1.17,4.48,2.41l7.79,4.62v-.09l.15.09v0c4.41,2.6,8.52,5.09,9.53,5.84q.11,12.35.23,24.85h.5c0-.36,0-.66,0-.95.08-7.51.2-15,.23-22.55a2.32,2.32,0,0,1,1.36-2.29c6.5-3.78,13-7.62,19.45-11.43.36-.21.75-.38,1.3-.66,0,.63.08,1.1.07,1.56-.08,7.52-.19,15-.24,22.55a2.23,2.23,0,0,1-1.23,2.21c-6.5,3.78-13,7.63-19.44,11.45l-.19.11h.66q9.74-5.46,19.46-10.94a1.9,1.9,0,0,1,2.14-.08c6.46,3.7,13,7.35,19.43,11h1L426.17,283.1c-.08-8.45-.15-16.87-.23-25.33,1.15.31,20.23,11.49,22.06,12.9.07,8.14.15,16.33.22,24.8h.53a3.94,3.94,0,0,1-.06-.63q.12-11.63.25-23.26a1.57,1.57,0,0,1,.79-1.57q10.35-6.07,20.68-12.18a6.42,6.42,0,0,1,.62-.24c0,.53.08.9.07,1.28-.09,7.66-.19,15.31-.25,23a1.9,1.9,0,0,1-1,1.88c-6.68,3.9-13.33,7.84-20,11.76h1q9.71-5.46,19.41-10.91a1.79,1.79,0,0,1,2-.08c6.45,3.69,12.93,7.33,19.4,11h1q-10-5.9-19.93-11.79a1.56,1.56,0,0,1-1-1.46c0-8-.13-15.9-.19-23.86,0-.19,0-.38.1-.81.6.32,1,.53,1.43.78,6.47,3.83,12.92,7.68,19.4,11.47a2.1,2.1,0,0,1,1.21,2.06c0,7.57.12,15.12.18,22.69,0,.29,0,.59,0,.93h.55a4.28,4.28,0,0,1,0-.62c.08-7.7.18-15.41.25-23.11a1.67,1.67,0,0,1,.82-1.7q10.3-6,20.56-12.1c.17-.1.35-.15.71-.31,0,.53.07.86.07,1.19-.09,7.71-.19,15.41-.25,23.11a1.78,1.78,0,0,1-.95,1.78c-6.67,3.9-13.32,7.84-20,11.76h.73c6.39-3.59,12.79-7.17,19.16-10.8a2.45,2.45,0,0,1,2.8,0c6.34,3.65,12.72,7.23,19.09,10.83h1.31c-3.77-1.9-18.19-10.34-21.22-12.46-.08-8.32-.15-16.75-.23-25.55l22.06,13.08q.11,12.45.23,24.94h.53a1.68,1.68,0,0,1-.07-.42c.08-7.86.19-15.71.24-23.57a1.8,1.8,0,0,1,1.13-1.68q8.41-4.91,16.8-9.86c1-.57,1.92-1.17,2.89-1.74.36-.21.75-.38,1.27-.64,0,.59.08,1,.08,1.42q-.13,11.42-.25,22.84a1.78,1.78,0,0,1-.86,1.83c-6.71,3.91-13.39,7.87-20.08,11.81h.91q9.76-5.5,19.51-11a1.59,1.59,0,0,1,1.76-.09q6,3.4,12,6.78v-.78q-5.52-3.27-11-6.51a2.21,2.21,0,0,1-1.24-2.2c0-7.52-.12-15-.18-22.55,0-.47,0-.94.07-1.56.53.27.92.44,1.28.66l11.12,6.59V264L564,257.51c-.17-.09-.32-.22-.62-.44a7.92,7.92,0,0,1,.89-.7l11.14-6.27v-.71l-11.74,6.92a5.29,5.29,0,0,1-.61.22c0-.53-.06-.91-.06-1.29.08-7.65.18-15.31.25-23a1.78,1.78,0,0,1,.93-1.79q5.62-3.28,11.23-6.6v-.83q-5.67,3.18-11.31,6.4a2.32,2.32,0,0,1-2.67,0c-6.51-3.74-13.06-7.41-19.6-11.12-.37-.21-.72-.46-1.23-.78.37-.26.61-.47.88-.62q10.2-5.74,20.41-11.48a1.67,1.67,0,0,1,1.89,0L575.38,212v-.78l-12-7.14c-.08-8.43-.15-16.85-.23-25.65l12.28,7.28v-.84l-10.9-6.16c-.29-.16-.54-.37-1.05-.72l1.35-.78,10.6-6v-.81l-10.55,6.22-1.64.94c0-.7-.08-1.12-.08-1.54.08-7.56.19-15.12.23-22.69a2.24,2.24,0,0,1,1.27-2.2q5.39-3.14,10.76-6.32v-.65L564,150.65a1.79,1.79,0,0,1-2,.07c-6.78-3.87-13.58-7.69-20.37-11.53-.24-.14-.46-.32-.83-.57.44-.3.77-.56,1.13-.76q10-5.63,20-11.26a1.79,1.79,0,0,1,2-.09q5.7,3.26,11.42,6.48v-.78q-5.46-3.23-10.92-6.46a1.77,1.77,0,0,1-1-1.74c0-7.7-.13-15.41-.19-23.12,0-.37,0-.74.09-1.29.56.29,1,.48,1.39.72l10.64,6.3v-.83l-10.47-5.92c-.37-.21-.72-.46-1.23-.79.36-.26.6-.47.87-.62l10.83-6.09v-.69l-10.51,6.21-1.4.81a11.63,11.63,0,0,1-.15-1.28c.08-7.71.18-15.42.25-23.14a1.79,1.79,0,0,1,.92-1.8q5.45-3.18,10.88-6.39v-.75q-5.6,3.15-11.2,6.31a1.8,1.8,0,0,1-2,.05c-6.78-3.87-13.58-7.7-20.38-11.55-.25-.14-.47-.32-.89-.61.52-.33.83-.56,1.16-.75,6.51-3.66,13-7.3,19.52-11a2.66,2.66,0,0,1,3.06,0q5.36,3.1,10.76,6.13v-.8l-11.69-6.93q-.12-12.61-.24-25.28c.71.14,6.36,3.3,11.92,6.57v-.69l-10.67-6c-.25-.14-.46-.32-.82-.57a8.69,8.69,0,0,1,.76-.55l10.73-6v-.84l-10.47,6.14-1.26.73a6.32,6.32,0,0,1-.18-1.06q.1-9.27.2-18.53h-.84c.06,6.47.12,13,.18,19.73L540.95,6.66q0-3.33-.06-6.66h-.83c0,1.82,0,3.64-.05,5.46a1.9,1.9,0,0,1-1,1.88c-6.66,3.89-13.29,7.83-19.94,11.76-.29.17-.6.3-1,.51a3.84,3.84,0,0,1-.2-.84q.1-9.38.2-18.76h-.83c.06,6.48.12,13,.18,19.78L495.26,6.67q0-3.33-.06-6.67h-.83q0,2.79-.06,5.58a1.58,1.58,0,0,1-.79,1.57q-10.37,6.07-20.7,12.18a4.79,4.79,0,0,1-.61.21c0-.59-.06-1-.06-1.45q.1-9,.2-18.09h-.84c.06,6.49.12,13,.18,19.62-.65-.34-1.08-.54-1.48-.78-6.47-3.83-12.93-7.68-19.42-11.48a2.12,2.12,0,0,1-1.2-2.07c0-1.77,0-3.53,0-5.3h-.81c0,1.82,0,3.64-.06,5.46a1.78,1.78,0,0,1-.94,1.78q-10.17,5.94-20.3,12c-.21.12-.43.21-.82.39,0-.5-.1-.92-.1-1.33q.1-9.13.2-18.26h-.84q.06,9.21.16,18.42c0,.33,0,.66-.08,1.22-.6-.32-1-.51-1.36-.73q-9.76-5.78-19.53-11.55a2,2,0,0,1-1.17-1.94c0-1.81,0-3.61,0-5.41H403c0,1.81,0,3.61-.06,5.41a1.78,1.78,0,0,1-.94,1.78c-6.59,3.84-13.15,7.73-19.72,11.59l-.11.07-.54.32c-.16.09-.34.16-.6.28a4.71,4.71,0,0,1-.15-.93q.1-9.27.2-18.53h-1c.06,6.44.12,13,.18,19.64l-21.91-13q0-3.33-.06-6.66h-1c0,1.82,0,3.64-.06,5.46a1.9,1.9,0,0,1-1,1.88c-6.65,3.89-13.27,7.82-19.91,11.74-.26.14-.53.27-.91.45a3,3,0,0,1-.18-.77q.1-9.38.2-18.76h-1c.06,6.46.12,13,.18,19.69l-22-13q0-3.33-.06-6.67h-1q0,2.79-.06,5.58a2,2,0,0,1-.24,1,1.52,1.52,0,0,1-.21.27l-.12.09a2.4,2.4,0,0,1-.29.22q-10.21,6-20.39,12l-.48.23-.23.07c0-.57-.06-1-.05-1.4q.1-9,.2-18.09h-1c.06,6.4.12,12.8.17,19.34v.21c-.56-.29-1-.48-1.33-.7-6.47-3.83-12.93-7.68-19.42-11.48A2.12,2.12,0,0,1,267,5.3c0-1.77,0-3.53,0-5.3h-1c0,1.82,0,3.64-.06,5.46a1.78,1.78,0,0,1-.94,1.78q-10.17,5.94-20.3,12c-.18.1-.39.19-.68.33,0-.47-.1-.87-.09-1.26q.1-9.13.2-18.26h-1q.06,9.21.16,18.42c0,.31,0,.63-.08,1.14-.52-.27-.88-.46-1.22-.66q-9.76-5.78-19.53-11.55a2,2,0,0,1-1.17-1.94c0-1.81,0-3.61,0-5.41h-1c0,1.81,0,3.61-.06,5.41a1.79,1.79,0,0,1-.94,1.78c-6.78,4-13.54,8-20.31,11.94-.17.1-.37.18-.66.32l-.06-.29c0-.39,0-.68,0-1q.1-9.1.2-18.19h-1c.06,6.46.12,12.94.18,19.62l-21.91-13q0-3.31-.06-6.63h-1c0,1.79,0,3.58,0,5.37a2,2,0,0,1-1.1,2C167,11.23,160.38,15.15,153.78,19c-.28.16-.58.29-1,.49l-.09-.31c0-.41,0-.7,0-1q.11-9.11.2-18.22h-1c.06,6.48.12,13,.18,19.67l-22-13c0-2.22,0-4.43-.06-6.64h-1c0,1.82,0,3.65-.06,5.47a1.78,1.78,0,0,1-1,1.76Q118,13.11,108,19c-.24.15-.53.27-.89.44,0-.52-.1-.92-.09-1.32.07-6.06.14-12.11.2-18.17h-1q.07,8.91.14,17.82c0,.5,0,1,0,1.72l-.16-.08-8.78-5.18v0q-5.89-3.5-11.8-7a2.12,2.12,0,0,1-1.2-2.07c0-1.77,0-3.53,0-5.3h-.81c0,1.82,0,3.64-.06,5.46a1.78,1.78,0,0,1-.94,1.78q-10.17,5.94-20.3,12c-.21.12-.43.21-.82.39,0-.5-.1-.92-.1-1.33q.1-9.13.2-18.26h-.84q.06,9.21.16,18.42c0,.33,0,.66-.08,1.22-.6-.32-1-.51-1.36-.73Q49.61,13.12,39.85,7.35a2,2,0,0,1-1.17-1.94c0-1.81,0-3.61,0-5.41h-.82c0,1.81,0,3.61-.06,5.41a1.79,1.79,0,0,1-.94,1.78c-6.78,4-13.54,8-20.31,11.94-.21.12-.44.21-.85.4,0-.59-.06-1-.06-1.35q.1-9.1.2-18.19H15c.06,6.49.12,13,.18,19.71ZM15.7,74a1.79,1.79,0,0,1,1.15-1.66L32.77,63c1.59-.94,3.2-1.85,5-2.89,0,.57.09,1,.08,1.32-.08,7.66-.19,15.33-.25,23a1.9,1.9,0,0,1-1,1.88c-6.66,3.89-13.29,7.83-19.94,11.75-.29.17-.6.31-1,.51a3.69,3.69,0,0,1-.2-.85C15.53,89.83,15.64,81.92,15.7,74ZM105,72.41a1.77,1.77,0,0,1,1.05,1.7c0,7.76.12,15.52.19,23.27,0,.31,0,.63-.07,1.14-.47-.24-.79-.4-1.09-.57l-7.67-4.54v0q-6-3.53-11.93-7a2.21,2.21,0,0,1-1.29-2.17c0-7.51-.11-15-.17-22.54,0-.47,0-.94.05-1.59.48.22.83.36,1.15.54l12,7.13v0ZM517.49,178.56c.57.3,1,.5,1.4.74,6.47,3.83,12.92,7.68,19.42,11.48a2.2,2.2,0,0,1,1.26,2.18c0,7.52.11,15,.18,22.56,0,.47,0,.94-.07,1.59-.57-.3-1-.5-1.4-.74-6.47-3.83-12.93-7.69-19.42-11.48a2.2,2.2,0,0,1-1.26-2.18c0-7.52-.11-15-.18-22.56C517.42,179.68,517.46,179.21,517.49,178.56Zm0-2.15q.12-11.63.25-23.26a1.57,1.57,0,0,1,.8-1.56q10.35-6.07,20.68-12.18a5.31,5.31,0,0,1,.61-.24c0,.53.07.91.07,1.28-.09,7.66-.18,15.31-.25,23a1.78,1.78,0,0,1-.91,1.8c-6.78,4-13.54,8-20.3,12-.21.12-.43.21-.8.4A9.4,9.4,0,0,1,517.49,176.42Zm21.59,13.78c-6.78-3.88-13.59-7.7-20.38-11.55-.25-.14-.48-.32-.85-.57a9.12,9.12,0,0,1,1-.72c6.68-3.76,13.37-7.5,20-11.28a2,2,0,0,1,2.28-.06c6.69,3.83,13.42,7.6,20.13,11.4.29.16.56.37,1.1.73-.64.37-1,.61-1.46.84Q551,184.51,541.22,190A1.89,1.89,0,0,1,539.08,190.19ZM539,111.1c-6.56-3.76-13.16-7.46-19.75-11.19-.37-.21-.72-.46-1.22-.78.4-.29.68-.54,1-.72,6.68-3.76,13.37-7.5,20-11.29a2,2,0,0,1,2.28,0c6.65,3.81,13.33,7.56,20,11.33.33.18.64.41,1.21.79l-1.48.86c-6.51,3.65-13,7.29-19.53,11A2.23,2.23,0,0,1,539,111.1Zm.78-26.67a1.77,1.77,0,0,1-.91,1.8c-6.79,4-13.55,8-20.32,12-.2.12-.43.21-.79.37a9,9,0,0,1-.14-1.17c.08-7.71.19-15.42.24-23.13a2,2,0,0,1,1.17-2c6.66-3.89,13.3-7.82,19.94-11.74.25-.15.52-.25,1-.46,0,.59.07,1,.07,1.34C540,69.1,539.86,76.76,539.79,84.42Zm-.11,28.27c.07,8.36.15,16.78.23,25.51l-22.06-13.07q-.12-12.64-.23-25.31C518.75,100.07,537.3,110.91,539.68,112.69Zm-21.56,13.69q10.36,5.9,20.75,11.76a8.27,8.27,0,0,1,.66.51l-1.43.83c-6.5,3.66-13,7.29-19.5,11a2.32,2.32,0,0,1-2.66,0c-6.51-3.75-13.06-7.41-19.6-11.11-.37-.21-.73-.46-1.24-.78a10.44,10.44,0,0,1,.87-.63q10.21-5.73,20.41-11.47A1.58,1.58,0,0,1,518.13,126.38Zm-46.29,52.14c7.48,4.38,14.7,8.7,22,13,.08,8.46.15,16.88.23,25.6-.74-.41-1.17-.64-1.59-.89-6.38-3.78-12.76-7.59-19.16-11.33a2.3,2.3,0,0,1-1.36-2.27c0-7.42-.1-14.84-.17-22.26C471.79,179.86,471.82,179.34,471.84,178.52Zm0-2.44c.08-7.61.18-15.22.25-22.82a1.78,1.78,0,0,1,.9-1.8c6.82-4,13.62-8,20.43-12,.17-.1.35-.17.64-.3a5,5,0,0,1,.18,1c-.08,7.85-.18,15.7-.25,23.55a1.59,1.59,0,0,1-.9,1.51q-10.16,6-20.3,11.95a9.33,9.33,0,0,1-.88.39C471.84,176.93,471.79,176.51,471.8,176.09Zm21.37,14c-6.56-3.76-13.15-7.46-19.73-11.18-.37-.21-.72-.46-1.23-.78.45-.31.78-.57,1.13-.77q10-5.63,20-11.26a1.79,1.79,0,0,1,2-.09c6.78,3.87,13.58,7.7,20.37,11.54.25.14.47.31.94.64l-1.35.77c-6.59,3.7-13.2,7.39-19.77,11.13A2.11,2.11,0,0,1,493.16,190.07Zm1.61,2.66a2,2,0,0,1,1.17-2c6.66-3.89,13.3-7.82,19.94-11.74.24-.15.52-.25,1-.46,0,.59.07,1,.07,1.34-.09,7.66-.19,15.32-.24,23a1.89,1.89,0,0,1-1,1.87q-10,5.84-19.94,11.74c-.29.17-.6.31-1.07.55,0-.53-.11-.93-.11-1.34C494.62,208.05,494.73,200.39,494.78,192.73Zm22.13-15.09c-.65-.36-1.07-.59-1.49-.83-6.42-3.8-12.83-7.63-19.28-11.39a2.21,2.21,0,0,1-1.28-2.17c0-7.52-.11-15-.17-22.54,0-.47,0-.94.06-1.58.48.23.83.36,1.15.55q9.95,5.89,19.9,11.78a1.65,1.65,0,0,1,1,1.57c0,7.86.13,15.71.19,23.57C517,176.85,517,177.13,516.91,177.63Zm-22.16-41c.09-7.57.19-15.13.24-22.7a2.11,2.11,0,0,1,1.15-2.11c6.63-3.85,13.22-7.76,19.82-11.65.29-.17.6-.3,1-.52a6.26,6.26,0,0,1,.17,1c-.08,7.81-.18,15.62-.25,23.43a1.68,1.68,0,0,1-.91,1.65q-10.17,6-20.31,12c-.21.12-.43.2-.88.41C494.78,137.49,494.74,137.07,494.74,136.64Zm22.34-38.07c-3.82-2.06-7.38-4.31-11-6.43s-7.3-4.33-11-6.51c-.08-8.45-.15-16.85-.23-25.44a10.45,10.45,0,0,1,1.14.49q10,5.93,20,11.86A1.54,1.54,0,0,1,517,74c0,7.91.13,15.82.2,23.73C517.16,97.94,517.13,98.13,517.09,98.57ZM495.66,87c6.65,3.81,13.33,7.56,20,11.33.33.19.63.42,1.18.78-1.23.71-2.24,1.3-3.25,1.87-5.87,3.31-11.76,6.58-17.61,9.92a2.44,2.44,0,0,1-2.79,0c-6.47-3.73-13-7.38-19.48-11.06-.41-.23-.81-.49-1.35-.82a8.1,8.1,0,0,1,.86-.68c6.72-3.79,13.45-7.55,20.16-11.36A2,2,0,0,1,495.66,87Zm-1.5-2.45a1.58,1.58,0,0,1-.8,1.56Q483,92.21,472.67,98.33a4.36,4.36,0,0,1-.6.23c0-.54-.07-.92-.06-1.29.08-7.66.18-15.31.25-23a1.79,1.79,0,0,1,.93-1.78q10.17-5.95,20.3-12c.21-.12.43-.21.76-.37a6,6,0,0,1,.16,1C494.33,69,494.23,76.79,494.16,84.59ZM472,99.5l22,13c.08,8.45.16,16.88.24,25.48a6.37,6.37,0,0,1-1-.36l-20.29-12a1.44,1.44,0,0,1-.86-1.36c0-8-.13-16-.19-24C471.94,100.11,472,100,472,99.5Zm.73,27.08c6.65,3.81,13.33,7.56,20,11.34.33.19.63.41,1.21.79l-1.48.85c-6.52,3.65-13,7.29-19.53,11a2.22,2.22,0,0,1-2.53,0c-6.56-3.76-13.16-7.47-19.75-11.19-.37-.21-.73-.46-1.22-.77a11.42,11.42,0,0,1,1-.72c6.68-3.76,13.37-7.5,20-11.29A2,2,0,0,1,472.77,126.58ZM427,178.95,447.39,191a1.44,1.44,0,0,1,.85,1.38q.07,12,.19,24a5.47,5.47,0,0,1-.1.66c-.52-.27-.91-.44-1.28-.66-6.55-3.87-13.09-7.77-19.65-11.63a1.86,1.86,0,0,1-1.1-1.82c0-7.71-.12-15.42-.19-23.12,0-.34,0-.68,0-1.14A3.81,3.81,0,0,1,427,178.95Zm-.82-2.9c.08-7.52.19-15,.24-22.55a2.23,2.23,0,0,1,1.23-2.22c6.54-3.8,13-7.66,19.57-11.5.36-.21.75-.38,1.3-.66,0,.63.08,1.1.07,1.56-.08,7.52-.19,15-.24,22.55a2.23,2.23,0,0,1-1.24,2.21c-6.5,3.79-13,7.63-19.43,11.46l-1.42.82C426.21,177,426.16,176.51,426.16,176ZM447.41,190c-6.56-3.76-13.15-7.46-19.73-11.18-.36-.21-.7-.47-1.24-.83l1.39-.8c6.59-3.7,13.2-7.38,19.77-11.12a2,2,0,0,1,2.27,0c6.6,3.78,13.24,7.5,19.86,11.25.36.21.7.47,1.17.78-.49.31-.83.56-1.2.77-6.59,3.71-13.19,7.4-19.76,11.14A2.23,2.23,0,0,1,447.41,190Zm1.74,2.67a1.68,1.68,0,0,1,.92-1.65q10.17-5.95,20.3-12c.21-.12.43-.22.8-.4a9.09,9.09,0,0,1,.14,1.15c-.08,7.75-.18,15.5-.25,23.26a1.57,1.57,0,0,1-.79,1.57q-10.42,6.1-20.81,12.24a3,3,0,0,1-.49.15c0-.45-.07-.77-.06-1.1C449,208.16,449.09,200.41,449.15,192.65Zm.12-28q-.12-12.63-.23-25.3c1.11.22,19.48,10.93,22.07,12.85.07,8.35.15,16.77.23,25.53ZM449,137c.08-7.81.19-15.62.24-23.42a1.91,1.91,0,0,1,1.17-1.81q8.92-5.2,17.81-10.45c1-.56,1.93-1.11,3.14-1.81,0,.73,0,1.21,0,1.68-.08,7.56-.19,15.13-.24,22.69a1.91,1.91,0,0,1-1,1.88c-6.66,3.89-13.3,7.82-19.94,11.74-.29.17-.6.31-1,.52A6.26,6.26,0,0,1,449,137Zm22.38-38.37c-.65-.36-1.07-.59-1.49-.84-6.43-3.8-12.83-7.63-19.28-11.39a2.21,2.21,0,0,1-1.29-2.17c0-7.51-.11-15-.17-22.54,0-.47,0-.94.05-1.59.48.22.83.36,1.15.54l19.9,11.78a1.66,1.66,0,0,1,1,1.56c0,7.86.12,15.71.19,23.57C471.53,97.85,471.48,98.13,471.43,98.64ZM449.86,87q10.23,5.83,20.5,11.6c.21.12.39.27.77.54-.48.31-.79.54-1.12.72q-10,5.63-20,11.26a1.9,1.9,0,0,1-2.14,0c-6.73-3.84-13.49-7.64-20.24-11.46-.25-.14-.48-.31-.85-.56a9.73,9.73,0,0,1,.94-.7Q437.83,92.74,448,87A1.69,1.69,0,0,1,449.86,87Zm-1.38-2.6a1.9,1.9,0,0,1-1.06,1.86c-6.7,3.91-13.37,7.86-20.06,11.8-.25.15-.52.26-.89.44a6.21,6.21,0,0,1-.17-1q.13-11.71.26-23.41a1.59,1.59,0,0,1,.81-1.56q10.36-6.06,20.68-12.17a5.23,5.23,0,0,1,.6-.23c0,.54.07.92.07,1.3C448.64,69.08,448.54,76.74,448.48,84.39ZM427.69,100.3c6.55,3.88,13.1,7.77,19.66,11.64a1.76,1.76,0,0,1,1,1.71c0,7.77.12,15.53.19,23.29,0,.29,0,.58,0,.84l-.17.11s-.1,0-.13,0a8.59,8.59,0,0,1-.79-.38l-20.93-12.41c-.08-8.46-.16-16.84-.23-25.53C426.94,99.92,427.33,100.09,427.69,100.3Zm-.5,26.29q9.91,5.66,19.87,11.25c.33.19.64.42,1.22.79l-1.47.85Q437,145,427.15,150.54a1.9,1.9,0,0,1-2.15.14c-6.78-3.88-13.58-7.7-20.38-11.55-.25-.14-.48-.32-.84-.57a10,10,0,0,1,1-.72c6.67-3.76,13.37-7.49,20-11.29A2.13,2.13,0,0,1,427.19,126.59Zm-45.61,78-.79-.54c-.08-8.38-.15-16.75-.23-25.5l12.13,7.2v-.05l9.83,5.83q.12,12.63.24,25.28c-.53-.09-5.06-2.62-9.92-5.44v-.11Zm.56-27.89-.7.4-.8.39c0-.61-.07-1-.07-1.4.08-7.56.19-15.12.23-22.69a2.24,2.24,0,0,1,1.27-2.2q5.39-3.14,10.76-6.32v-.08l8.9-5.25c.28-.17.6-.28,1-.49,0,.48.11.85.11,1.21-.09,7.71-.18,15.42-.25,23.13a1.79,1.79,0,0,1-.95,1.78q-4.51,2.63-9,5.28h0Zm19.71,13.36q-4.5-2.58-9-5.13v0l-10.9-6.16c-.28-.16-.53-.36-1-.69l.33-.25,1-.56,10.6-6v-.08q4.54-2.55,9.07-5.12a2,2,0,0,1,2.28,0c6.65,3.81,13.33,7.56,20,11.33.33.19.64.41,1.22.79l-1.48.86c-6.51,3.65-13,7.29-19.53,11A2.23,2.23,0,0,1,401.85,190.07Zm1.61,2.64a1.78,1.78,0,0,1,.94-1.78C411.15,187,417.86,183,424.58,179c.25-.15.52-.26.94-.47,0,.51.11.92.1,1.33-.08,7.65-.18,15.31-.25,23a1.78,1.78,0,0,1-.93,1.79c-6.78,4-13.55,8-20.31,11.94-.21.12-.43.21-.86.41,0-.59-.06-1-.06-1.34C403.3,208,403.4,200.37,403.47,192.71Zm22.14-15.14c-.46-.22-.81-.36-1.13-.55q-10-5.9-19.92-11.79a1.77,1.77,0,0,1-1-1.72c0-7.76-.13-15.53-.19-23.29,0-.32,0-.65.08-1.13.42.2.72.31,1,.47q10,5.94,20,11.87a1.76,1.76,0,0,1,1,1.72c0,7.76.13,15.52.2,23.29C425.69,176.77,425.65,177.09,425.61,177.57Zm-22.18-40.89c.08-7.61.18-15.21.24-22.82a1.89,1.89,0,0,1,1-1.9c6.65-3.88,13.28-7.82,19.92-11.74.32-.19.67-.33,1.17-.59,0,.61.07,1.08.06,1.55-.08,7.51-.19,15-.23,22.53a2.22,2.22,0,0,1-1.26,2.19c-6.49,3.78-13,7.62-19.42,11.43l-1.4.81C403.48,137.51,403.43,137.1,403.43,136.68Zm.36-51.05c-.08-8.5-.15-16.89-.23-25.22a1.5,1.5,0,0,1,.22-.12.2.2,0,0,1,.13,0c.26.13.53.24.78.39l20.93,12.41c.08,8.47.15,16.89.23,25.64Zm.39,1.31c6.82,3.9,13.66,7.74,20.49,11.61.2.12.39.27.71.5a11.15,11.15,0,0,1-1,.69q-10.07,5.67-20.15,11.35a1.8,1.8,0,0,1-2,.1q-4.71-2.69-9.43-5.36v0l-10.47-5.92c-.37-.21-.72-.46-1.23-.79.36-.26.6-.47.87-.62l10.83-6.09v-.08L402.17,87A1.79,1.79,0,0,1,404.18,86.93Zm-1.34-2.5a1.9,1.9,0,0,1-1,1.88q-4.57,2.67-9.13,5.37h0l-10.51,6.21-.47.27-.8.4a9.15,9.15,0,0,1-.13-1.15c.08-7.71.18-15.42.25-23.14a1.79,1.79,0,0,1,.92-1.8q5.45-3.18,10.88-6.39V66L398,63c1.59-.94,3.2-1.85,5-2.89,0,.57.09,1,.08,1.32C403,69.11,402.91,76.77,402.84,84.43Zm-22,15.29.27.08c.36.18.69.34,1,.51l10.64,6.3v0l9.2,5.45a1.45,1.45,0,0,1,.86,1.37c0,8,.12,16,.19,24a6.09,6.09,0,0,1-.1.67c-.52-.26-.91-.43-1.27-.65l-8.74-5.18v0q-5.46-3.23-10.92-6.46a1.77,1.77,0,0,1-1-1.74c0-7.7-.13-15.41-.19-23.12C380.72,100.55,380.77,100.21,380.8,99.73Zm0,26.59a2.17,2.17,0,0,1,.48.2q5.7,3.26,11.42,6.48v0l8.76,5c.33.18.63.4,1.08.7-.43.29-.72.53-1,.71l-8.8,5h0l-11.37,6.39a3.51,3.51,0,0,1-.41.19l-.25.08h0a1.56,1.56,0,0,1-.67,0,2.19,2.19,0,0,1-.48-.2c-6.78-3.87-13.58-7.69-20.37-11.53-.24-.14-.46-.32-.83-.57.44-.3.77-.56,1.13-.76q10-5.63,20-11.26a2.46,2.46,0,0,1,.94-.34h0A1.78,1.78,0,0,1,380.79,126.32ZM339.15,181c5.4,3.2,10.79,6.41,16.21,9.57l.43.27a2.17,2.17,0,0,1,1.1,2.07c0,7.52.11,15,.18,22.56,0,.45,0,.91-.06,1.51-.5-.25-.9-.45-1.26-.67-6.47-3.83-12.93-7.69-19.42-11.48a2.2,2.2,0,0,1-1.26-2.18c0-7.52-.11-15-.18-22.56,0-.41,0-.83.05-1.36C335.5,179,337.07,179.88,339.15,181Zm-4.2-4.63q.12-11.63.25-23.26a1.57,1.57,0,0,1,.8-1.56q10.35-6.07,20.68-12.18a3.14,3.14,0,0,1,.47-.19c0,.5.07.87.06,1.23-.09,7.66-.18,15.31-.25,23a1.84,1.84,0,0,1-.6,1.58l-.17.12-.14.09c-6.78,4-13.54,8-20.3,12l-.45.23-.22.1A8.14,8.14,0,0,1,334.94,176.42Zm21.92,13.93-.06,0-.27-.13c-6.78-3.88-13.59-7.7-20.38-11.55-.25-.14-.48-.32-.85-.57a9.13,9.13,0,0,1,1-.72c6.68-3.76,13.37-7.5,20-11.28a2.54,2.54,0,0,1,1.1-.37,2.13,2.13,0,0,1,1,.31c6.69,3.83,13.42,7.6,20.13,11.4.28.16.54.35,1,.69-.45.29-.78.52-1.11.72l-.29.16q-9.83,5.53-19.66,11.06a5,5,0,0,1-.47.24,1.67,1.67,0,0,1-1,.13Zm1.83-50.75,20.16,11.94a1.43,1.43,0,0,1,.9,1.34c0,8.06.12,16.11.18,24.17a1.93,1.93,0,0,1-.11.42c-3.7-2-7.23-4.23-10.82-6.33s-7.3-4.33-11-6.5c-.08-8.45-.15-16.82-.23-25.36A4.88,4.88,0,0,1,358.69,139.6Zm-.86-2.9c.09-7.65.18-15.31.25-23A1.78,1.78,0,0,1,359,112c6.74-3.94,13.45-7.92,20.17-11.88.22-.13.46-.23.77-.38a8.42,8.42,0,0,1,.12,1.12c-.08,7.71-.18,15.41-.25,23.11a1.79,1.79,0,0,1-.94,1.79c-6.77,4-13.52,7.95-20.28,11.93-.2.11-.42.2-.74.35C357.86,137.42,357.83,137.05,357.84,136.69Zm.09,56.27a2.24,2.24,0,0,1,1.26-2.2c6.45-3.75,12.86-7.56,19.29-11.34l1.3-.75a4.61,4.61,0,0,1,.18,1q-.12,11.78-.26,23.57a2.87,2.87,0,0,1,0,.29,2.12,2.12,0,0,1-1,1.32q-10.22,6-20.42,12a3,3,0,0,1-.47.18l0-.17c0-.52,0-.94,0-1.35C357.77,208,357.88,200.48,357.92,193Zm17.95-96.84-16.73-9.9-.25-.16a1.4,1.4,0,0,1-.72-1.29c0-8-.13-16-.19-24a2.89,2.89,0,0,1,.05-.43c.53.21,2,1,3.94,2.07l17.46,10.35.51.34c.08,8.39.15,16.76.24,25.28A44.41,44.41,0,0,1,375.87,96.13Zm-17.75-9.27a2.79,2.79,0,0,1,.54.24c6.65,3.81,13.33,7.56,20,11.33.31.17.61.39,1.13.74-.42.28-.72.51-1,.69l-.37.22c-6.41,3.6-12.83,7.18-19.22,10.81l-.31.18a3.76,3.76,0,0,1-.63.29h0a2.11,2.11,0,0,1-.46.09,2.32,2.32,0,0,1-1.26-.35c-6.56-3.76-13.16-7.46-19.75-11.19-.37-.21-.72-.46-1.22-.78.4-.29.68-.54,1-.72,6.68-3.76,13.37-7.5,20-11.29a2.54,2.54,0,0,1,1-.34A2.06,2.06,0,0,1,358.12,86.86Zm-1-2.43a2.34,2.34,0,0,1-.23,1.14,2,2,0,0,1-.73.69c-6.73,3.93-13.43,7.9-20.14,11.85l-.64.32-.15.07a7.81,7.81,0,0,1-.13-1.11c.08-7.71.19-15.42.24-23.13a2,2,0,0,1,1.17-2c6.66-3.89,13.3-7.82,19.94-11.74a9.05,9.05,0,0,1,.85-.4c0,.55.07.92.07,1.28C357.27,69.1,357.18,76.76,357.1,84.42Zm-13,20.47,9,5.33c1.88,1.15,3.32,2.06,3.87,2.47.07,8.23.15,16.52.23,25.12a44.61,44.61,0,0,1-4.39-2.3l-16.69-9.89-.82-.56q-.11-12.58-.23-25.19C336,100.24,339.86,102.42,344.13,104.89Zm-9,21.35a1.73,1.73,0,0,1,.36.15q10.36,5.9,20.75,11.76a5.87,5.87,0,0,1,.56.43,6.76,6.76,0,0,1-.75.57l-.1.06-2.37,1.34q-6.72,3.77-13.43,7.57l-4.29,2.42a2.67,2.67,0,0,1-1.1.35,2.57,2.57,0,0,1-1.32-.4c-6.51-3.75-13.06-7.41-19.6-11.11-.37-.21-.73-.46-1.24-.78a10.4,10.4,0,0,1,.86-.63q10.21-5.73,20.41-11.47a2.49,2.49,0,0,1,.66-.26A1.7,1.7,0,0,1,335.08,126.24Zm-45.79,52.41.39.19c7.12,4.17,14,8.3,21,12.41a1.52,1.52,0,0,1,.49.76c.07,8.1.15,16.17.22,24.51,0,.15,0,.31,0,.51-.61-.34-1-.56-1.39-.78-6.38-3.78-12.76-7.59-19.16-11.33a2.3,2.3,0,0,1-1.36-2.27c0-7.42-.1-14.84-.17-22.26C289.25,179.89,289.28,179.39,289.29,178.65Zm0-2.56c.08-7.61.18-15.22.25-22.82a1.78,1.78,0,0,1,.9-1.8c6.82-4,13.62-8,20.43-12a5.64,5.64,0,0,1,.51-.24,4.25,4.25,0,0,1,.17.9c-.08,7.85-.18,15.7-.25,23.55a1.69,1.69,0,0,1-.21.87l-.09.12a2,2,0,0,1-.6.53q-10.16,6-20.3,11.95a6.52,6.52,0,0,1-.74.33C289.29,176.9,289.25,176.49,289.26,176.09Zm21.37,14c-6.56-3.76-13.15-7.46-19.73-11.18-.37-.21-.72-.46-1.23-.78.45-.31.78-.57,1.13-.77q10-5.63,20-11.26a2.5,2.5,0,0,1,.94-.34,1.77,1.77,0,0,1,.45.06,2.14,2.14,0,0,1,.48.2c6.78,3.87,13.58,7.7,20.37,11.54.23.13.45.3.85.58-.39.27-.67.5-1,.67l-.29.16q-9,5-17.94,10.1l-1.86,1a3.26,3.26,0,0,1-.55.25l-.08,0a1.92,1.92,0,0,1-.37.06A2.29,2.29,0,0,1,310.62,190.07Zm1.61,2.66a2,2,0,0,1,1.17-2c6.66-3.89,13.3-7.82,19.94-11.74a8.69,8.69,0,0,1,.81-.39l0,.25c0,.41.05.72,0,1-.09,7.66-.19,15.32-.24,23a1.89,1.89,0,0,1-1,1.87q-10,5.84-19.94,11.74c-.25.14-.51.27-.88.45l-.06,0c0-.49-.1-.88-.1-1.27C312.08,208.05,312.19,200.39,312.24,192.73Zm22-15.17c-.57-.31-1-.53-1.35-.76-6.42-3.8-12.83-7.63-19.28-11.39a2.21,2.21,0,0,1-1.28-2.17c0-7.52-.11-15-.17-22.54,0-.45,0-.91.06-1.51a11,11,0,0,1,1,.49q9.95,5.89,19.9,11.78a1.65,1.65,0,0,1,1,1.57c0,7.86.13,15.71.19,23.57C334.32,176.83,334.28,177.1,334.23,177.56Zm-22-40.92c.09-7.57.19-15.13.24-22.7a2.11,2.11,0,0,1,1.16-2.11c6.63-3.85,13.22-7.76,19.82-11.65.25-.15.54-.28.89-.46a5.29,5.29,0,0,1,.16,1c-.08,7.81-.18,15.62-.25,23.43a2.12,2.12,0,0,1-.18.9l-.09.15a1.45,1.45,0,0,1-.14.18l-.12.14a2.18,2.18,0,0,1-.38.28l-8.42,5-4.79,2.82-6.85,4c-.25.14-.53.27-.87.44l-.13.06C312.23,137.47,312.2,137.05,312.2,136.64Zm22.21-38.15c-3.76-2-7.28-4.26-10.87-6.35s-7.3-4.33-11-6.51c-.08-8.43-.15-16.81-.23-25.38a7.68,7.68,0,0,1,1,.43q10,5.93,20,11.86a1.54,1.54,0,0,1,.9,1.49c0,7.91.13,15.82.2,23.73C334.48,97.93,334.45,98.12,334.41,98.49Zm-22-11.7A2.84,2.84,0,0,1,313,87c6.65,3.81,13.33,7.56,20,11.33.3.17.59.38,1.06.69a8.05,8.05,0,0,1-.64.53l-1.39.8-4.31,2.42-10.4,5.86L313.09,111a2.87,2.87,0,0,1-1.07.34,2.61,2.61,0,0,1-1.37-.4c-6.47-3.73-13-7.38-19.48-11.06-.39-.22-.78-.47-1.28-.78l-.06-.05a7.88,7.88,0,0,1,.85-.67c6.72-3.79,13.45-7.55,20.16-11.36a2.76,2.76,0,0,1,.81-.31A2.12,2.12,0,0,1,312.43,86.8Zm-1-2.2a1.58,1.58,0,0,1-.8,1.56Q300.31,92.21,290,98.33l0,0-.42.15c0-.51-.07-.88-.06-1.24.08-7.66.18-15.31.25-23a1.79,1.79,0,0,1,.93-1.78q10.17-5.95,20.3-12c.17-.1.38-.19.63-.31a5.1,5.1,0,0,1,.15.94C311.65,69,311.55,76.79,311.47,84.59Zm-22,15,21.87,13c.08,8.43.15,16.85.23,25.44a4.57,4.57,0,0,1-.85-.31l-20.29-12a1.44,1.44,0,0,1-.86-1.36c0-8-.13-16-.19-24A6.34,6.34,0,0,1,289.49,99.58Zm0,26.75a2.84,2.84,0,0,1,.56.25c6.65,3.81,13.33,7.56,20,11.34.31.17.6.39,1.11.72-.37.27-.63.49-.92.66l-.46.26q-8.35,4.69-16.7,9.38l-2.9,1.63a2.75,2.75,0,0,1-1.08.37,2.33,2.33,0,0,1-1.24-.35c-6.56-3.76-13.16-7.47-19.75-11.19-.37-.21-.73-.46-1.22-.77a11.42,11.42,0,0,1,1-.72c6.68-3.76,13.37-7.5,20-11.29a2.48,2.48,0,0,1,1.06-.36A2,2,0,0,1,289.52,126.33Zm-45.23,52.62L264.7,191a1.44,1.44,0,0,1,.85,1.38q.07,12,.19,24a4.29,4.29,0,0,1-.09.59c-.45-.23-.81-.4-1.14-.59-6.55-3.87-13.09-7.77-19.65-11.63a1.86,1.86,0,0,1-1.1-1.82c0-7.71-.12-15.42-.19-23.12,0-.33,0-.66,0-1.1A2.63,2.63,0,0,1,244.29,178.95Zm-.67-2.9c.08-7.52.19-15,.24-22.55a2.23,2.23,0,0,1,1.23-2.22c6.54-3.8,13-7.66,19.57-11.5.33-.19.69-.36,1.16-.59,0,.6.07,1,.07,1.49-.08,7.52-.19,15-.24,22.55a2.23,2.23,0,0,1-1.24,2.21c-6.5,3.79-13,7.63-19.43,11.46l-1.28.74C243.66,176.95,243.62,176.49,243.62,176ZM264.87,190c-6.56-3.76-13.15-7.46-19.73-11.18-.36-.21-.7-.47-1.24-.83l1.39-.8c6.59-3.7,13.2-7.38,19.77-11.12a2.35,2.35,0,0,1,1.06-.34,2.31,2.31,0,0,1,1.06.34c6.6,3.78,13.24,7.5,19.86,11.25.36.21.7.47,1.17.78-.49.31-.83.56-1.2.77-6.59,3.71-13.19,7.4-19.76,11.14a2.55,2.55,0,0,1-1.19.38A2.61,2.61,0,0,1,264.87,190Zm1.74,2.67a1.68,1.68,0,0,1,.92-1.65q10.17-5.95,20.3-12c.18-.1.38-.2.67-.34a7.89,7.89,0,0,1,.13,1.08c-.08,7.75-.18,15.5-.25,23.26a2.71,2.71,0,0,1-.09.67,1.79,1.79,0,0,1-.78.95q-10.38,6.08-20.73,12.19a1.58,1.58,0,0,1-.35.11c0-.42-.07-.74-.06-1.06C266.45,208.16,266.55,200.41,266.61,192.65ZM284,174.88l-17.31-10.26q-.12-12.6-.23-25.25c1.21.47,7.74,4.19,13.41,7.54v0l5,3c1.67,1,2.95,1.84,3.5,2.25.07,8.22.15,16.51.22,25.12A46.36,46.36,0,0,1,284,174.88ZM266.51,137c.08-7.81.19-15.62.24-23.42a1.91,1.91,0,0,1,1.17-1.81q8.92-5.2,17.81-10.45l3-1.72c0,.08,0,.14,0,.22,0,.56,0,1,0,1.37-.08,7.56-.19,15.13-.24,22.69a1.91,1.91,0,0,1-1,1.88c-6.66,3.89-13.3,7.82-19.94,11.74-.25.15-.53.28-.88.45A5.25,5.25,0,0,1,266.51,137Zm22.24-38.45c-.56-.31-1-.53-1.35-.76C281,94,274.57,90.18,268.12,86.41a2.21,2.21,0,0,1-1.29-2.17c0-7.51-.11-15-.17-22.54,0-.45,0-.91.05-1.52a10.76,10.76,0,0,1,1,.48l19.9,11.78a1.66,1.66,0,0,1,1,1.56c0,7.86.12,15.71.19,23.57A9.81,9.81,0,0,1,288.75,98.57ZM267.17,87q10.23,5.83,20.5,11.6c.21.12.39.27.77.54-.48.31-.79.54-1.12.72q-10,5.63-20,11.26a2.38,2.38,0,0,1-1,.34,2,2,0,0,1-1-.3c-6.73-3.84-13.49-7.64-20.24-11.46-.25-.14-.48-.31-.85-.56a9.77,9.77,0,0,1,.94-.7q10.14-5.7,20.28-11.4a2.17,2.17,0,0,1,.88-.3A1.75,1.75,0,0,1,267.17,87Zm-1.38-2.6a1.9,1.9,0,0,1-1.06,1.86c-6.7,3.91-13.37,7.86-20.06,11.8-.22.13-.46.24-.76.38a5.25,5.25,0,0,1-.15-.94q.12-11.71.26-23.41a1.59,1.59,0,0,1,.81-1.56q10.36-6.06,20.68-12.17a3,3,0,0,1,.45-.18c0,.51.07.88.07,1.24C266,69.08,265.85,76.74,265.79,84.39ZM245,100.3c6.55,3.88,13.1,7.77,19.66,11.64a1.76,1.76,0,0,1,1,1.71c0,7.77.12,15.53.19,23.29,0,.29,0,.58,0,.84l-.17.11h0a7.9,7.9,0,0,1-.75-.36L244,125.12c-.08-8.43-.15-16.79-.23-25.46C244.31,99.94,244.67,100.1,245,100.3Zm-.5,26.29q9.91,5.66,19.87,11.25c.33.19.64.42,1.22.79l-1.47.85q-9.83,5.52-19.66,11.05a2.59,2.59,0,0,1-1.18.41,1.89,1.89,0,0,1-.82-.27c-6.78-3.88-13.58-7.7-20.38-11.55-.25-.14-.48-.32-.84-.57a10,10,0,0,1,1-.72c6.67-3.76,13.37-7.49,20-11.29a2.36,2.36,0,0,1,1.13-.35A2.58,2.58,0,0,1,244.5,126.59ZM201.26,206c-1.44-.89-2.55-1.6-3.11-2-.07-8.32-.15-16.71-.23-25.45l21.91,13q.12,12.61.23,25.24c-1-.37-5.31-2.8-9.92-5.48v0Zm-3.33-30c.08-7.52.2-15,.23-22.55a2.33,2.33,0,0,1,1.32-2.3l1.76-1c6-3.5,12-7,18-10.56a9,9,0,0,1,.9-.43,11.27,11.27,0,0,1,.1,1.15c-.09,7.71-.18,15.42-.25,23.13a1.79,1.79,0,0,1-.95,1.78c-6.71,3.91-13.38,7.87-20.07,11.81-.25.15-.53.27-1,.48C198,176.85,197.93,176.43,197.94,176Zm21.38,14.05c-6.56-3.77-13.16-7.46-19.75-11.19-.37-.21-.73-.46-1.23-.78.4-.29.68-.54,1-.72,6.68-3.76,13.37-7.5,20-11.29a2.49,2.49,0,0,1,1.06-.36,2.19,2.19,0,0,1,1.06.33c6.65,3.81,13.33,7.56,20,11.33.33.19.64.41,1.22.79l-1.48.86c-6.51,3.65-13,7.29-19.53,11a2.78,2.78,0,0,1-1.19.4A2.41,2.41,0,0,1,219.31,190.07Zm1.61,2.64a1.78,1.78,0,0,1,.94-1.78C228.61,187,235.32,183,242,179c.22-.13.47-.24.8-.4,0,.48.1.87.1,1.26-.08,7.65-.18,15.31-.25,23a1.78,1.78,0,0,1-.93,1.79c-6.78,4-13.55,8-20.31,11.94-.18.11-.39.19-.72.35,0-.54-.06-.91-.05-1.27C220.76,208,220.86,200.37,220.93,192.71Zm22-15.21c-.39-.18-.7-.32-1-.48q-10-5.9-19.92-11.79a1.77,1.77,0,0,1-1-1.72c0-7.76-.13-15.53-.19-23.29,0-.31,0-.63.07-1.06.34.15.62.27.86.41q10,5.94,20,11.87a1.76,1.76,0,0,1,1,1.72c0,7.76.13,15.52.2,23.29C243,176.75,243,177.06,242.93,177.5Zm-22-40.82c.08-7.61.18-15.21.24-22.82a1.89,1.89,0,0,1,1-1.9c6.65-3.88,13.28-7.82,19.92-11.74.29-.17.61-.31,1-.52,0,.57.06,1,.06,1.48-.08,7.51-.19,15-.23,22.53a2.22,2.22,0,0,1-1.26,2.19c-6.49,3.78-13,7.62-19.42,11.43l-1.26.73C220.93,137.48,220.88,137.08,220.89,136.68Zm.36-51.05c-.08-8.5-.15-16.89-.23-25.22a1.54,1.54,0,0,1,.22-.12h0c.25.12.51.23.75.37l20.93,12.41c.08,8.44.15,16.83.23,25.55Zm.25,1.31c6.82,3.9,13.66,7.74,20.49,11.61.2.12.39.27.71.5a11.12,11.12,0,0,1-1,.69q-10.07,5.67-20.15,11.35a2.57,2.57,0,0,1-.94.35,1.73,1.73,0,0,1-.93-.25c-6.82-3.9-13.66-7.74-20.49-11.61-.19-.11-.37-.26-.74-.52.32-.23.55-.43.8-.57l.24-.14,3.5-2q8.3-4.66,16.6-9.32a2.63,2.63,0,0,1,.94-.36A1.7,1.7,0,0,1,221.49,86.93Zm-1.34-2.5a1.9,1.9,0,0,1-1,1.88c-6.66,3.89-13.29,7.83-19.94,11.75-.25.15-.54.28-.88.45a3.06,3.06,0,0,1-.18-.78c.08-7.91.19-15.81.25-23.72a1.87,1.87,0,0,1,.09-.59h0a2,2,0,0,1,1.06-1.07L215.46,63c1.55-.91,3.12-1.8,4.87-2.81,0,.52.08.89.08,1.24C220.32,69.11,220.22,76.77,220.16,84.43ZM198.93,100l20.28,12a1.45,1.45,0,0,1,.86,1.37c0,8,.12,16,.19,24a4.78,4.78,0,0,1-.09.6c-.45-.22-.81-.39-1.13-.58-6.55-3.88-13.09-7.77-19.66-11.63a1.88,1.88,0,0,1-1.11-1.82c0-7.71-.12-15.42-.19-23.13,0-.33,0-.66,0-1.12A3.92,3.92,0,0,1,198.93,100Zm-.14,26.56c6.64,3.8,13.32,7.55,20,11.32.33.18.63.4,1.08.7-.43.29-.72.53-1,.71q-10.07,5.67-20.15,11.34a2.15,2.15,0,0,1-1,.32,1.91,1.91,0,0,1-.89-.27c-6.73-3.84-13.49-7.65-20.24-11.46-.27-.15-.53-.35-1-.64.39-.27.69-.5,1-.69l.41-.23q9.24-5.19,18.47-10.38l1.19-.67a2.51,2.51,0,0,1,1-.35A2.14,2.14,0,0,1,198.79,126.58ZM160.7,183.48l8.57,5.06c2,1.22,3.66,2.23,4.52,2.81a1.88,1.88,0,0,1,.42.72c.08,8.18.15,16.43.23,25l-.5-.25L153,204.45a1.9,1.9,0,0,1-.57-1c-.07-8.16-.15-16.27-.22-24.41v-.26C153.15,179.17,156.7,181.16,160.7,183.48Zm-8.4-7.08q.12-11.62.25-23.26a1.57,1.57,0,0,1,.79-1.57Q163.7,145.51,174,139.4l0,0,.44-.17c0,.49.07.86.07,1.22-.09,7.7-.19,15.41-.25,23.11a1.68,1.68,0,0,1-.92,1.65q-10.23,6-20.43,12a5.15,5.15,0,0,1-.54.26A7.82,7.82,0,0,1,152.31,176.4Zm21.63,13.79c-6.82-3.9-13.67-7.75-20.51-11.62-.21-.12-.4-.27-.75-.5a8.68,8.68,0,0,1,.92-.71L173.76,166l.33-.16a1.82,1.82,0,0,1,1.18-.09,2,2,0,0,1,.37.15q10.17,5.8,20.38,11.54c.28.16.52.39.89.66-.49.31-.83.56-1.19.77q-10,5.6-19.91,11.2a2.48,2.48,0,0,1-1,.35A1.72,1.72,0,0,1,173.93,190.19Zm1.35,2.33a1.89,1.89,0,0,1,.05-.35,2.06,2.06,0,0,1,.84-1.17l.25-.16,15.92-9.34c1.55-.91,3.11-1.8,4.89-2.82l0,.14c0,.55.05,1,0,1.38-.09,7.51-.19,15-.24,22.54a2.23,2.23,0,0,1-1.26,2.2c-6.5,3.78-13,7.63-19.44,11.45l-1.06.61-.08,0a4.62,4.62,0,0,1-.19-.94C175.12,208.23,175.23,200.37,175.29,192.52Zm22-15-1.07-.6-20.77-12.31c-.08-8.44-.15-16.8-.23-25.37l.22.07a5,5,0,0,1,.77.34c6.68,3.95,13.36,7.92,20,11.86a1.54,1.54,0,0,1,.9,1.49c.05,7.91.13,15.82.2,23.73C197.32,176.9,197.29,177.08,197.24,177.52Zm-22-41c.08-7.51.19-15,.24-22.53a2.22,2.22,0,0,1,1.25-2.2c6.45-3.76,12.86-7.57,19.29-11.36l.67-.39.72-.36c0,.55.09.94.09,1.33-.08,7.61-.18,15.21-.25,22.82a1.9,1.9,0,0,1-1,1.91c-6.74,3.93-13.46,7.91-20.19,11.87a8.28,8.28,0,0,1-.81.38C175.22,137.32,175.19,136.9,175.2,136.48ZM189.66,94,179,87.75c-1.43-.88-2.57-1.6-3.24-2.06a1.23,1.23,0,0,1-.23-.43c-.08-8.21-.15-16.5-.23-24.8l0-.13c.81.32,3.72,1.93,7.19,3.91l12.32,7.3c1.09.68,1.95,1.23,2.44,1.59q.11,12.52.23,25.21C196.71,98,193.45,96.22,189.66,94Zm-13.48-6.88c6.52,3.73,13.08,7.41,19.62,11.11.41.23.8.5,1.36.85-.5.34-.84.6-1.2.8q-10,5.6-19.92,11.2a2.82,2.82,0,0,1-.81.31,2,2,0,0,1-.69,0,2.37,2.37,0,0,1-.49-.21c-6.74-3.85-13.5-7.65-20.25-11.47a11,11,0,0,1-.91-.64c.35-.26.61-.48.9-.65l.24-.14c6.59-3.71,13.2-7.4,19.78-11.15a3.27,3.27,0,0,1,.63-.28l.12,0a2,2,0,0,1,.37-.06A2.53,2.53,0,0,1,176.19,87.17Zm-1.72-2.77a1.9,1.9,0,0,1-1,1.87c-6.66,3.89-13.3,7.82-19.94,11.74-.25.15-.54.28-.9.46a8.05,8.05,0,0,1-.13-1.11c.08-7.71.18-15.42.25-23.13a2,2,0,0,1,.51-1.48l0,0a2.55,2.55,0,0,1,.39-.29l.13-.09c6.69-3.91,13.36-7.86,20-11.8.18-.1.39-.19.67-.32l.17-.07c0,.54.07.91.06,1.27C174.63,69.07,174.53,76.74,174.47,84.4Zm-17.26,18L173.42,112q.6.39.94.63.11,12.57.23,25.16c-.82-.31-4.08-2.12-7.86-4.29L155.84,127c-1.47-.91-2.61-1.64-3.18-2-.07-8.23-.15-16.53-.23-25.15C152.86,100,154.72,101,157.21,102.38ZM153,126.49c6.69,3.83,13.41,7.6,20.11,11.39.29.17.56.36,1,.63a8.14,8.14,0,0,1-.83.63q-10.2,5.75-20.4,11.49a2.67,2.67,0,0,1-.37.17,2.06,2.06,0,0,1-1.15,0,2.29,2.29,0,0,1-.22-.1q-10.23-5.83-20.5-11.61c-.19-.11-.37-.25-.74-.52.32-.23.54-.42.78-.57l.37-.21q10-5.61,20-11.23a2.4,2.4,0,0,1,.93-.32A2,2,0,0,1,153,126.49Zm-45.21,52.77q9.83,5.82,19.66,11.64a1.76,1.76,0,0,1,1.06,1.7c0,7.76.12,15.52.19,23.28,0,.31,0,.62-.09,1.14l-21.18-12.55a2,2,0,0,1-.64-1c-.07-8.16-.15-16.28-.22-24.59v-.19C107.14,178.91,107.5,179.07,107.83,179.26Zm-1.21-3.43c.08-7.46.19-14.92.23-22.38a2.23,2.23,0,0,1,1.23-2.21q6.88-4,13.73-8.08l6-3.53.43-.25.54-.25a9.37,9.37,0,0,1,.11,1.15c-.08,7.7-.18,15.41-.25,23.11a1.78,1.78,0,0,1-1,1.77c-6.74,3.94-13.46,7.91-20.18,11.87-.22.13-.46.23-.83.4C106.64,176.77,106.61,176.3,106.62,175.84Zm22,14.54a2.3,2.3,0,0,1-.45-.2q-10.1-5.76-20.24-11.46c-.27-.15-.52-.34-1-.64.41-.28.72-.52,1-.71l.36-.21q9.82-5.51,19.65-11a2.6,2.6,0,0,1,1.06-.37,2.11,2.11,0,0,1,1.07.31c6.64,3.81,13.32,7.55,20,11.32.33.19.63.41,1.08.7-.42.29-.71.52-1,.7q-10.08,5.67-20.15,11.34a2.56,2.56,0,0,1-.74.28A1.92,1.92,0,0,1,128.67,190.37Zm.93,2.48a2.13,2.13,0,0,1,.77-1.85l.27-.19.12-.08c6.67-3.88,13.3-7.82,19.94-11.73a4.15,4.15,0,0,1,.39-.2l.38-.17a5.53,5.53,0,0,1,.15.94c-.08,7.81-.18,15.62-.25,23.43a1.68,1.68,0,0,1-.91,1.65q-10.17,6-20.32,12c-.18.1-.38.19-.73.35,0-.61-.06-1-.06-1.43C129.44,208,129.54,200.42,129.6,192.86Zm22-15.32c-.56-.31-1-.53-1.34-.75-6.43-3.81-12.83-7.63-19.28-11.39a2.21,2.21,0,0,1-1.29-2.17c0-7.52-.11-15-.18-22.54,0-.46,0-.92,0-1.53a10.18,10.18,0,0,1,1,.47q10,5.89,19.91,11.78a1.77,1.77,0,0,1,1,1.71c0,7.76.12,15.52.19,23.27C151.68,176.7,151.64,177,151.6,177.54Zm-22-40.67c.08-7.71.18-15.42.25-23.13a2.58,2.58,0,0,1,.16-1,1.82,1.82,0,0,1,.12-.2l.09-.13a2,2,0,0,1,.2-.22,2,2,0,0,1,.36-.28c6.74-3.93,13.46-7.91,20.19-11.87l.52-.27.31-.13,0,.13c0,.54,0,.94,0,1.32-.09,7.56-.19,15.13-.25,22.69a2,2,0,0,1-1.06,2c-6.62,3.86-13.21,7.78-19.81,11.67-.29.17-.61.32-1,.52A9.28,9.28,0,0,1,129.56,136.88Zm21.09-39L129.93,85.61c-.07-8.39-.15-16.73-.23-25.41l.84.35,20.7,12.27a1.35,1.35,0,0,1,.38.56c.07,8.33.15,16.6.23,25.18Zm-20.1-10.76c6.52,3.74,13.08,7.42,19.62,11.12.38.21.74.45,1.23.76a6.31,6.31,0,0,1-.81.66l-20.42,11.49-.3.14a2.13,2.13,0,0,1-1.32-.06q-10.43-5.94-20.88-11.84a4.19,4.19,0,0,1-.47-.37l.54-.43a4.26,4.26,0,0,1,.38-.25c6.3-3.54,12.61-7.07,18.89-10.64l1-.58a3.61,3.61,0,0,1,.64-.29l.09,0a2.1,2.1,0,0,1,.39-.06A2.51,2.51,0,0,1,130.55,87.13Zm-1.72-2.54a1.58,1.58,0,0,1-.82,1.55q-10.35,6.06-20.69,12.18a3.25,3.25,0,0,1-.45.17c0-.52-.06-.89-.06-1.25.08-7.66.18-15.31.25-23a1.79,1.79,0,0,1,.95-1.78c6.74-3.94,13.45-7.92,20.18-11.88.21-.12.46-.23.75-.38a5.62,5.62,0,0,1,.14,1C129,69,128.91,76.78,128.83,84.59Zm-22,15,21.87,13c.08,8.43.16,16.85.24,25.43a4.48,4.48,0,0,1-.85-.31l-20.29-12a1.44,1.44,0,0,1-.86-1.37c0-8-.12-16-.19-24A5.66,5.66,0,0,1,106.85,99.56Zm.73,27.08c6.57,3.76,13.17,7.46,19.75,11.19.37.21.72.46,1.21.78a12.2,12.2,0,0,1-1,.73q-10.09,5.67-20.18,11.34a3.59,3.59,0,0,1-.43.21,2,2,0,0,1-1.13,0,1.82,1.82,0,0,1-.18-.07q-4.12-2.35-8.25-4.68v0l-11.91-6.73c-.37-.21-.73-.46-1.22-.77a11.46,11.46,0,0,1,1-.72l12.14-6.83h0c2.61-1.47,5.23-2.94,7.83-4.42a2.62,2.62,0,0,1,1.19-.39A2.52,2.52,0,0,1,107.58,126.64ZM61.75,178.95,82.16,191A1.44,1.44,0,0,1,83,192.4q.08,12,.19,24a5.4,5.4,0,0,1-.1.66c-.52-.27-.91-.44-1.28-.66-6.55-3.87-13.09-7.77-19.65-11.63a1.86,1.86,0,0,1-1.1-1.82c0-7.71-.12-15.42-.19-23.12,0-.34,0-.68,0-1.14A3.81,3.81,0,0,1,61.75,178.95Zm-.82-2.9c.08-7.52.19-15,.24-22.55a2.24,2.24,0,0,1,1.23-2.22c6.54-3.8,13-7.66,19.57-11.5.36-.21.75-.38,1.3-.66,0,.63.08,1.1.07,1.56-.08,7.52-.19,15-.24,22.55a2.23,2.23,0,0,1-1.24,2.21c-6.5,3.79-13,7.63-19.43,11.46l-1.42.82C61,177,60.94,176.51,60.94,176ZM82.18,190c-6.56-3.76-13.15-7.46-19.73-11.18-.36-.21-.7-.47-1.24-.83l1.39-.8c6.59-3.7,13.2-7.38,19.77-11.12a2,2,0,0,1,2.27,0q6.28,3.59,12.57,7.13v0l7.52,4.25c.24.14.46.32.92.63l-.09.06-1.27.72-7.09,4v.07Q91,186.45,84.71,190A2.23,2.23,0,0,1,82.18,190Zm1.74,2.67a1.68,1.68,0,0,1,.92-1.65q6.27-3.67,12.52-7.37h0l7.19-4.24.67-.39.7-.35c0,.59.07,1,.07,1.39-.08,7.61-.19,15.22-.25,22.82a1.89,1.89,0,0,1-1,1.88q-3.75,2.19-7.49,4.41v.07l-13,7.64a3,3,0,0,1-.49.15c0-.45-.07-.77-.07-1.1C83.76,208.16,83.86,200.41,83.93,192.65ZM98,172.91l-14-8.29q-.12-12.63-.23-25.3c.66.13,7.47,4,13.41,7.5V147l7.68,4.55.88.59q.11,12.57.23,25.16C105.18,176.95,101.86,175.12,98,172.91ZM83.82,137c.08-7.81.19-15.62.24-23.42a1.91,1.91,0,0,1,1.17-1.81q8.92-5.2,17.81-10.45l2.8-1.62.18-.09c0,.49.11.89.1,1.28-.08,7.66-.18,15.32-.25,23a1.79,1.79,0,0,1-.92,1.8q-3.88,2.27-7.75,4.56v.07L85,137.51c-.29.17-.6.31-1,.52A6.29,6.29,0,0,1,83.82,137Zm.81-50q6.28,3.58,12.59,7.13v0l7.62,4.31c.29.16.54.36,1,.68h0l-1.37.79L97.22,104v.07q-6.23,3.5-12.46,7a1.9,1.9,0,0,1-2.14,0c-6.73-3.84-13.49-7.64-20.24-11.46-.25-.14-.48-.31-.85-.56a9.81,9.81,0,0,1,.94-.7Q72.61,92.74,82.74,87A1.69,1.69,0,0,1,84.63,87Zm-1.38-2.6a1.9,1.9,0,0,1-1.06,1.86C75.5,90.17,68.82,94.12,62.14,98c-.25.15-.52.26-.89.44a6.19,6.19,0,0,1-.17-1q.12-11.71.26-23.41a1.59,1.59,0,0,1,.81-1.56Q72.5,66.47,82.83,60.36a5.23,5.23,0,0,1,.6-.23c0,.54.07.92.07,1.3C83.41,69.08,83.31,76.74,83.25,84.39ZM62.46,100.3c6.55,3.88,13.1,7.77,19.66,11.64a1.76,1.76,0,0,1,1,1.71c0,7.77.12,15.53.19,23.29,0,.29,0,.58,0,.84l-.17.11s-.1,0-.13,0a8.6,8.6,0,0,1-.79-.38L61.3,125.12c-.08-8.46-.16-16.84-.23-25.53C61.71,99.92,62.1,100.09,62.46,100.3ZM62,126.59q9.91,5.66,19.87,11.25c.33.19.64.42,1.22.79l-1.47.85Q71.75,145,61.93,150.54a1.9,1.9,0,0,1-2.15.14C53,146.81,46.2,143,39.4,139.13c-.25-.14-.48-.32-.84-.57a10,10,0,0,1,1-.72c6.67-3.76,13.37-7.49,20-11.29A2.13,2.13,0,0,1,62,126.59ZM38.24,192.71a1.78,1.78,0,0,1,.94-1.78C45.92,187,52.63,183,59.35,179c.25-.15.52-.26.94-.47,0,.51.11.92.1,1.33-.08,7.65-.18,15.31-.25,23a1.78,1.78,0,0,1-.93,1.79c-6.79,4-13.55,8-20.31,11.94-.21.12-.43.21-.86.41,0-.59-.06-1-.06-1.34C38.07,208,38.17,200.37,38.24,192.71Zm-1.61-2.64c-6.56-3.77-13.16-7.46-19.75-11.19-.37-.21-.73-.46-1.23-.78.4-.29.68-.54,1-.72,6.68-3.76,13.37-7.5,20-11.29a2,2,0,0,1,2.28,0c6.65,3.81,13.33,7.56,20,11.33.33.19.64.41,1.22.79l-1.48.86c-6.51,3.65-13,7.29-19.53,11A2.23,2.23,0,0,1,36.63,190.07Zm23.76-12.5c-.46-.22-.81-.36-1.13-.55q-10-5.9-19.92-11.79a1.77,1.77,0,0,1-1-1.72c0-7.76-.13-15.53-.19-23.29,0-.32,0-.65.08-1.13.42.2.72.31,1,.47q10,5.94,20,11.87a1.76,1.76,0,0,1,1,1.72c0,7.76.13,15.52.2,23.29C60.47,176.77,60.42,177.09,60.39,177.57ZM38.2,136.68c.08-7.61.18-15.21.24-22.82a1.89,1.89,0,0,1,1-1.9c6.65-3.88,13.28-7.82,19.92-11.74.32-.19.67-.33,1.17-.59,0,.61.07,1.08.06,1.55-.08,7.51-.19,15-.23,22.53a2.22,2.22,0,0,1-1.26,2.19c-6.49,3.78-13,7.62-19.42,11.43l-1.4.81C38.25,137.51,38.2,137.1,38.2,136.68Zm.36-51.05c-.08-8.5-.15-16.89-.23-25.22a1.53,1.53,0,0,1,.22-.12.2.2,0,0,1,.13,0c.26.13.53.24.78.39L60.39,73.06c.08,8.47.15,16.89.23,25.64ZM39,86.93c6.82,3.9,13.66,7.74,20.49,11.61.2.12.39.27.71.5a11.11,11.11,0,0,1-1,.69q-10.07,5.67-20.15,11.35a1.8,1.8,0,0,1-2,.1c-6.82-3.9-13.66-7.74-20.49-11.61-.2-.12-.39-.28-.82-.59L17,98.23Q27,92.64,36.94,87A1.79,1.79,0,0,1,39,86.93Zm-2.61,50.49c-6.55-3.88-13.09-7.77-19.66-11.63A1.88,1.88,0,0,1,15.58,124c0-7.71-.12-15.42-.19-23.13,0-.34,0-.68,0-1.17a5.59,5.59,0,0,1,.95.34l20.28,12a1.45,1.45,0,0,1,.86,1.37c0,8,.12,16,.19,24a6,6,0,0,1-.1.67C37.1,137.8,36.71,137.63,36.35,137.42Zm-20.87,16a2.33,2.33,0,0,1,1.33-2.31c6.59-3.83,13.14-7.72,19.7-11.58.28-.17.6-.28,1-.49,0,.48.11.85.11,1.21-.09,7.71-.18,15.42-.25,23.13a1.79,1.79,0,0,1-.95,1.78c-6.71,3.91-13.38,7.87-20.07,11.81-.28.17-.59.3-1.1.55,0-.69,0-1.12,0-1.55C15.33,168.5,15.45,161,15.48,153.47Zm0,50.52c-.07-8.35-.15-16.77-.23-25.54l22.06,13.08q.12,12.63.24,25.28C36.43,216.63,18.39,206.12,15.46,204Zm-.36,51.15c.08-7.6.19-15.21.25-22.82a1.89,1.89,0,0,1,1-1.88c6.65-3.89,13.28-7.82,19.92-11.74.32-.19.66-.33,1.14-.56,0,.56.09,1,.08,1.4-.08,7.56-.2,15.12-.24,22.68A2.22,2.22,0,0,1,36,244.39c-6.45,3.76-12.87,7.57-19.29,11.36l-1.52.87C15.15,256,15.1,255.56,15.1,255.14Zm43.73,2.63q-10.08,5.68-20.17,11.34a1.68,1.68,0,0,1-1.88.1q-10.3-5.87-20.64-11.69c-.2-.11-.37-.27-.72-.53.47-.31.74-.51,1-.68,6.6-3.71,13.21-7.4,19.78-11.15a2.45,2.45,0,0,1,2.8,0c6.47,3.72,13,7.37,19.49,11,.41.23.8.5,1.36.84C59.44,257.35,59.15,257.59,58.83,257.77ZM38.21,243.61Q38.09,231,38,218.29c1.27.31,18.41,10.3,22.06,12.82.08,8.34.15,16.77.24,25.56Zm21.4-13.91q-10.16-5.8-20.37-11.53c-.24-.14-.46-.32-.83-.58.44-.3.77-.56,1.13-.76q10-5.63,20-11.26a1.79,1.79,0,0,1,2-.08c6.77,3.87,13.58,7.69,20.37,11.54.25.14.47.31.93.64l-1.23.7q-10,5.62-20,11.26A1.79,1.79,0,0,1,59.61,229.7Zm1.12,25.63c.08-7.71.18-15.42.25-23.13a1.79,1.79,0,0,1,.92-1.8c6.79-4,13.55-8,20.32-12a8.81,8.81,0,0,1,.85-.36c0,.58.06,1,.06,1.35q-.13,11.5-.25,23a1.79,1.79,0,0,1-.93,1.79q-10.12,5.91-20.2,11.89c-.24.14-.51.25-.9.44A10.11,10.11,0,0,1,60.73,255.32Zm43.4,2.66-6.91,3.88v.07q-6.34,3.55-12.66,7.12a2.11,2.11,0,0,1-2.4,0c-6.6-3.79-13.25-7.51-19.87-11.26-.34-.19-.66-.41-1.1-.7a6,6,0,0,1,.78-.65q10.2-5.75,20.42-11.5a1.58,1.58,0,0,1,1.76-.09l13.08,7.42v0l7.07,4c.36.21.69.46,1.24.84Zm1.65-1.54-.49-.16-7.92-4.69v.05l-12.7-7.52a1.44,1.44,0,0,1-.86-1.37q-.07-12-.19-24a3.69,3.69,0,0,1,.06-.43c.64.09,7.51,4,13.54,7.55V226l7.42,4.39a1.77,1.77,0,0,1,1,1.72c0,7.76.13,15.53.19,23.29C105.85,255.69,105.81,256,105.78,256.45Zm.36-26.6H106a2.48,2.48,0,0,1-.45-.09,3.45,3.45,0,0,1-.69-.31c-2.51-1.45-5-2.87-7.54-4.29v0l-11.85-6.71L84,217.59a11.49,11.49,0,0,1,1-.76l12.35-6.95h0l7.69-4.34.18-.09.2-.09a2,2,0,0,1,1.33-.09,2.84,2.84,0,0,1,.48.21c6.69,3.83,13.42,7.61,20.13,11.4.28.16.55.37,1,.72-1.22.7-2.22,1.29-3.24,1.87-5.87,3.3-11.76,6.57-17.61,9.91A2.92,2.92,0,0,1,106.14,229.84Zm.32,25.72c.08-7.86.19-15.71.24-23.57a1.84,1.84,0,0,1,0-.33,2.15,2.15,0,0,1,.9-1.21l.19-.12q8-4.65,15.92-9.34c1.55-.91,3.13-1.8,4.88-2.81,0,.46.09.77.09,1.08-.09,7.76-.19,15.52-.25,23.28a1.79,1.79,0,0,1-1,1.74q-10,5.89-20.06,11.83c-.22.13-.46.24-.77.38A4.26,4.26,0,0,1,106.46,255.56Zm43.59,2.15Q140,263.38,129.9,269.06a2.3,2.3,0,0,1-1,.33,1.81,1.81,0,0,1-.88-.26c-6.77-3.87-13.58-7.7-20.36-11.54-.25-.14-.47-.32-.94-.64l1.59-.92q9.1-5.1,18.19-10.23l1.35-.76a3.34,3.34,0,0,1,.55-.25l.07,0a1.94,1.94,0,0,1,.38-.06,2.25,2.25,0,0,1,1.23.34c6.55,3.76,13.15,7.46,19.73,11.18.37.21.72.46,1.23.78C150.64,257.3,150.36,257.54,150.05,257.71Zm.41-1.74q-9.95-5.9-19.9-11.77a1.77,1.77,0,0,1-1-1.71c0-7.71-.12-15.42-.19-23.12,0-.34,0-.69.08-1.22l.59.3,20.68,12.26a1.89,1.89,0,0,1,.55.83c.08,8.26.15,16.5.23,25C151,256.27,150.72,256.13,150.46,256Zm1.46-26a2.17,2.17,0,0,1-1.06-.33c-6.65-3.81-13.33-7.56-20-11.33-.32-.18-.63-.41-1.05-.69l.29-.26a5.56,5.56,0,0,1,.67-.47q8.32-4.69,16.64-9.38l3.45-1.94a3.28,3.28,0,0,1,.47-.22l.06,0a1.87,1.87,0,0,1,.43-.08,2.12,2.12,0,0,1,1.11.32c6.65,3.81,13.33,7.56,20,11.33.31.18.61.4,1.14.75l.06.05-1.35.78c-6.6,3.7-13.2,7.39-19.79,11.13A2.51,2.51,0,0,1,151.92,229.95Zm.17,25c.09-7.56.19-15.12.25-22.68a2.36,2.36,0,0,1,.29-1.3l.06-.09a1.68,1.68,0,0,1,.21-.23,2.44,2.44,0,0,1,.39-.29h0c6.7-3.91,13.37-7.87,20-11.8l.16-.09.72-.35a9.92,9.92,0,0,1,.11,1.12c-.08,7.7-.19,15.41-.25,23.12a1.78,1.78,0,0,1-1,1.77c-6.74,3.94-13.46,7.91-20.18,11.87-.22.13-.46.23-.82.4C152.12,255.81,152.1,255.4,152.1,255Zm44.47,2.32-1.16.66c-6.55,3.68-13.11,7.34-19.64,11.06a2.34,2.34,0,0,1-1.3.35,2.74,2.74,0,0,1-1.08-.37c-6.56-3.76-13.15-7.46-19.73-11.18-.36-.21-.7-.47-1.16-.78.5-.31.85-.56,1.22-.77q8.26-4.64,16.53-9.29l3.38-1.9.19-.09a2.93,2.93,0,0,1,.33-.15l.18,0,.31,0a2.34,2.34,0,0,1,1.1.34c6.6,3.78,13.24,7.51,19.86,11.25.36.2.69.46,1.2.8Zm.55-.89a3.91,3.91,0,0,1-.79-.28l-20.28-12a1.45,1.45,0,0,1-.86-1.37c0-8-.13-16-.19-24a5.08,5.08,0,0,1,.09-.6c.44.22.8.39,1.13.58q9.83,5.82,19.65,11.64a3,3,0,0,1,.74.57l.08.1a1.59,1.59,0,0,1,.29,1c0,7.85.12,15.71.19,23.57C197.17,255.81,197.14,256,197.11,256.41Zm.32-26.56a2.79,2.79,0,0,1-1.21-.41c-6.51-3.74-13.06-7.42-19.6-11.12-.37-.21-.72-.46-1.23-.78.37-.26.61-.47.88-.62q10.2-5.74,20.41-11.47a3,3,0,0,1,.35-.16,1.51,1.51,0,0,1,.94,0,1.8,1.8,0,0,1,.32.13q10.36,5.9,20.74,11.76a6.71,6.71,0,0,1,.64.5l-1.44.83c-6.5,3.66-13,7.29-19.5,11A2.58,2.58,0,0,1,197.43,229.84Zm.44,26.67c0-.58-.09-1-.08-1.38.08-7.6.19-15.21.25-22.82a1.89,1.89,0,0,1,1-1.88c6.65-3.89,13.28-7.82,19.92-11.74.28-.17.6-.31,1-.5,0,.52.08.93.08,1.33-.08,7.56-.2,15.12-.24,22.68a2.23,2.23,0,0,1-1.27,2.19c-6.45,3.76-12.87,7.57-19.29,11.36l-1.22.7Zm43.5,1.25q-10.08,5.68-20.17,11.34a2.41,2.41,0,0,1-.89.33,1.6,1.6,0,0,1-.85-.23q-10.3-5.87-20.64-11.69a7.42,7.42,0,0,1-.66-.48,8.09,8.09,0,0,1,.78-.61l.19-.11c6.6-3.71,13.21-7.4,19.78-11.15a2.89,2.89,0,0,1,1.32-.43,2.78,2.78,0,0,1,1.33.42c6.47,3.72,13,7.37,19.49,11,.41.23.8.5,1.36.84C242,257.35,241.69,257.59,241.37,257.77Zm-20.48-14.16q-.12-12.62-.23-25.26c2.08.82,18.37,10.32,21.91,12.77.08,8.32.15,16.72.23,25.48ZM243.22,230a1.8,1.8,0,0,1-.93-.26q-10.16-5.8-20.37-11.53c-.24-.14-.46-.32-.83-.58.44-.3.77-.56,1.13-.76q10-5.63,20-11.26a2.47,2.47,0,0,1,.94-.34,1.77,1.77,0,0,1,.93.26c6.77,3.87,13.58,7.69,20.37,11.54.25.14.47.31.93.64l-1.23.7q-10,5.62-20,11.26A2.4,2.4,0,0,1,243.22,230Zm.19,25.36c.08-7.71.18-15.42.25-23.13a1.79,1.79,0,0,1,.92-1.8c6.79-4,13.55-8,20.32-12a6,6,0,0,1,.71-.3c0,.55.06.92.06,1.29q-.13,11.5-.25,23a1.79,1.79,0,0,1-.93,1.79q-10.12,5.91-20.2,11.89c-.21.12-.45.23-.76.38A8.84,8.84,0,0,1,243.42,255.32ZM286.77,258c-6.56,3.68-13.12,7.34-19.66,11.05a2.58,2.58,0,0,1-1.12.38,2.33,2.33,0,0,1-1.13-.35c-6.6-3.79-13.25-7.51-19.87-11.26-.34-.19-.65-.41-1.1-.7a6,6,0,0,1,.78-.65q10.2-5.75,20.42-11.5a2.22,2.22,0,0,1,.83-.3,1.51,1.51,0,0,1,.79.21q10.43,5.94,20.89,11.84a5.45,5.45,0,0,1,.58.48Zm1.7-1.57a4.27,4.27,0,0,1-.82-.3q-10.15-6-20.29-12a1.44,1.44,0,0,1-.86-1.37q-.07-12-.19-24a2.89,2.89,0,0,1,.05-.39c1.19.44,7.78,4.17,13.55,7.59V226l5.4,3.19c1.06.66,2,1.23,2.6,1.67a1.53,1.53,0,0,1,.37.66c.07,8.16.15,16.29.23,24.57Zm.31-26.6a3.12,3.12,0,0,1-1.34-.46c-6.38-3.68-12.82-7.28-19.23-10.91l-1.52-.88a11.54,11.54,0,0,1,1-.76c6.64-3.74,13.29-7.45,19.91-11.22a2.68,2.68,0,0,1,1.23-.39,2.47,2.47,0,0,1,1.16.36c6.56,3.76,13.16,7.47,19.75,11.19.37.21.73.46,1.34.85-1.25.72-2.25,1.31-3.26,1.88-5.08,2.85-10.16,5.69-15.23,8.57l-2.35,1.33A2.87,2.87,0,0,1,288.77,229.85Zm.4,26.58c0-.57-.07-1-.06-1.38.08-7.52.2-15,.23-22.55a2.32,2.32,0,0,1,1.36-2.29c6.47-3.76,12.91-7.58,19.36-11.38l.16-.09c.31-.18.65-.33,1.11-.56v0c0,.64,0,1.06,0,1.47-.09,7.52-.19,15-.24,22.55a2.23,2.23,0,0,1-1.23,2.21l-.09.05c-6.47,3.77-12.9,7.59-19.34,11.4l-.53.3-.74.36Zm43.52,1.3q-10.07,5.67-20.15,11.35a3.71,3.71,0,0,1-.38.18l-.28.09h0a1.55,1.55,0,0,1-.69,0,2.17,2.17,0,0,1-.5-.21c-6.77-3.87-13.57-7.69-20.37-11.54-.25-.14-.47-.32-.94-.64l1.33-.77q10-5.59,19.9-11.18a2.89,2.89,0,0,1,.73-.29,1.92,1.92,0,0,1,.73,0,2.09,2.09,0,0,1,.4.17c6.78,3.87,13.58,7.69,20.37,11.53.25.14.47.31.84.57C333.29,257.32,333,257.55,332.69,257.73Zm1.39-1.19-.4-.21-21-12.46a1.55,1.55,0,0,1-.44-.67c-.08-8.25-.15-16.55-.23-25.07.56.29,1,.47,1.32.7,6.46,3.83,12.91,7.68,19.4,11.46a2.2,2.2,0,0,1,1.23,2.19c0,7.46.11,14.93.18,22.39C334.12,255.34,334.1,255.81,334.08,256.54Zm.48-26.59a2.35,2.35,0,0,1-1.13-.35c-6.6-3.79-13.25-7.51-19.87-11.26-.33-.19-.66-.41-1.11-.69a6.11,6.11,0,0,1,.78-.65q10.21-5.75,20.42-11.5a2.77,2.77,0,0,1,.53-.23,1.8,1.8,0,0,1,.81,0,1.74,1.74,0,0,1,.27.11q10.43,5.94,20.89,11.84a5.78,5.78,0,0,1,.58.49l-1.38.79c-6.56,3.68-13.12,7.34-19.67,11.05a3.44,3.44,0,0,1-.61.28l-.1,0A1.94,1.94,0,0,1,334.55,230Zm.26,26.48c0-.53-.08-.94-.08-1.34.09-7.61.19-15.21.25-22.82a1.9,1.9,0,0,1,1-1.88c6.66-3.89,13.28-7.82,19.92-11.74.28-.17.6-.3,1-.49,0,.52.08.93.08,1.33-.08,7.56-.19,15.12-.23,22.68a2.23,2.23,0,0,1-1.26,2.18l-1.57.92q-9,5.26-18,10.58c-.32.19-.68.36-1.11.57Zm43.55,1.36-9.09,5.11-1.58.89-9.46,5.32a2.13,2.13,0,0,1-2,0c-6.73-3.85-13.49-7.65-20.24-11.46-.25-.14-.47-.32-.93-.64l1.22-.7q10-5.63,20-11.26a2.47,2.47,0,0,1,.94-.34,1.84,1.84,0,0,1,.48.07,2.13,2.13,0,0,1,.45.19c6.78,3.87,13.58,7.69,20.37,11.54.24.14.46.32.83.57C379,257.39,378.69,257.62,378.37,257.79Zm1.37-1.36-.43-.13a6.25,6.25,0,0,1-.58-.29q-10-5.89-19.9-11.78a1.64,1.64,0,0,1-1-1.57c0-7.85-.12-15.71-.19-23.56,0-.26,0-.53.09-1l.05,0c.54.3.93.51,1.3.73,6.42,3.8,12.83,7.63,19.28,11.4a2.21,2.21,0,0,1,1.28,2.17c0,7.52.11,15,.17,22.54C379.8,255.42,379.77,255.86,379.74,256.43Zm.64-26.6a2,2,0,0,1-.85-.06,3.61,3.61,0,0,1-.67-.31c-6.51-3.74-13.06-7.41-19.6-11.12-.37-.21-.72-.46-1.23-.78.37-.26.61-.47.88-.62q10.2-5.74,20.41-11.48a1.89,1.89,0,0,1,.9-.28,1.93,1.93,0,0,1,.84.27q5.81,3.3,11.64,6.59v0l9,5.12a6.7,6.7,0,0,1,.64.5l-1.44.83-8.23,4.62h0q-5.67,3.18-11.31,6.4a3.62,3.62,0,0,1-.56.25l-.31.09Zm0,25.42c.08-7.65.18-15.31.25-23a1.78,1.78,0,0,1,.93-1.79q5.62-3.28,11.23-6.6v-.08l8.68-5.12c.32-.19.66-.33,1.14-.56,0,.56.09,1,.08,1.4-.08,7.56-.2,15.12-.24,22.68a2.22,2.22,0,0,1-1.27,2.19q-4.28,2.49-8.54,5h0l-11.74,6.92a3.17,3.17,0,0,1-.46.17C380.46,256,380.42,255.61,380.43,255.25Zm43.63,2.52Q414,263.44,403.9,269.11a1.68,1.68,0,0,1-1.88.1l-9.17-5.2v0l-11.41-6.46c-.17-.09-.32-.22-.62-.44a7.92,7.92,0,0,1,.89-.7l11.14-6.27V250q4.32-2.43,8.62-4.88a2.45,2.45,0,0,1,2.8,0c6.47,3.72,13,7.37,19.49,11,.41.23.8.5,1.36.84C424.67,257.35,424.38,257.59,424.06,257.77Zm-20.63-14.16q-.12-12.64-.23-25.31c1.27.31,18.41,10.3,22.06,12.82.08,8.34.15,16.77.24,25.56Zm21.4-13.91q-10.16-5.8-20.37-11.53c-.24-.14-.46-.32-.83-.58.44-.3.77-.56,1.13-.76q10-5.63,20-11.26a1.79,1.79,0,0,1,2-.08c6.77,3.87,13.58,7.69,20.37,11.54.25.14.47.31.93.64l-1.23.7q-10,5.62-20,11.26A1.79,1.79,0,0,1,424.84,229.7ZM426,255.32c.08-7.71.18-15.42.25-23.13a1.79,1.79,0,0,1,.92-1.8c6.79-4,13.55-8,20.32-12a8.83,8.83,0,0,1,.85-.36c0,.58.06,1,.06,1.35q-.13,11.5-.25,23a1.79,1.79,0,0,1-.93,1.79q-10.12,5.91-20.2,11.89c-.24.14-.51.25-.9.44A10.12,10.12,0,0,1,426,255.32ZM469.45,258c-6.56,3.68-13.12,7.34-19.66,11.05a2.11,2.11,0,0,1-2.4,0c-6.6-3.79-13.25-7.51-19.87-11.26-.34-.19-.65-.41-1.11-.7a6,6,0,0,1,.78-.65q10.2-5.75,20.42-11.5a1.58,1.58,0,0,1,1.76-.09q10.43,5.94,20.89,11.84a5.44,5.44,0,0,1,.58.48Zm.73-1.87q-10.15-6-20.29-12a1.44,1.44,0,0,1-.86-1.37q-.07-12-.19-24a3.78,3.78,0,0,1,.06-.43c1,.15,18.23,10.14,22,12.82.08,8.43.16,16.83.23,25.38A6.45,6.45,0,0,1,470.19,256.14ZM470,229.39c-6.38-3.68-12.82-7.28-19.23-10.91l-1.52-.88a11.44,11.44,0,0,1,1-.76c6.64-3.74,13.29-7.45,19.91-11.22a2.24,2.24,0,0,1,2.54,0c6.56,3.76,13.16,7.47,19.75,11.19.37.21.73.46,1.34.85-1.25.72-2.25,1.31-3.26,1.88-5.87,3.3-11.77,6.57-17.61,9.92A2.55,2.55,0,0,1,470,229.39ZM471.65,255c.08-7.52.2-15,.23-22.55a2.32,2.32,0,0,1,1.36-2.29c6.5-3.78,13-7.62,19.45-11.43.36-.22.75-.39,1.34-.68,0,.71,0,1.14,0,1.58-.09,7.52-.19,15-.24,22.55a2.23,2.23,0,0,1-1.23,2.21c-6.5,3.78-13,7.63-19.43,11.45l-1.43.82C471.69,256,471.64,255.5,471.65,255Zm43.73,2.69q-10.07,5.67-20.15,11.35a1.79,1.79,0,0,1-2,.08c-6.77-3.87-13.57-7.69-20.37-11.54-.25-.14-.47-.32-.94-.64l1.33-.77q10-5.59,19.9-11.18a1.79,1.79,0,0,1,2-.09c6.78,3.87,13.58,7.69,20.37,11.53.25.14.47.31.84.57C516,257.32,515.69,257.55,515.38,257.73Zm1.39-1.07-22-13c-.08-8.41-.16-16.86-.23-25.55.64.33,1.07.53,1.47.77,6.46,3.83,12.91,7.68,19.4,11.46a2.2,2.2,0,0,1,1.23,2.19c0,7.46.11,14.93.18,22.39C516.81,255.36,516.78,255.85,516.76,256.66ZM516,229.6c-6.6-3.79-13.25-7.51-19.87-11.26-.33-.19-.66-.41-1.11-.69a6.14,6.14,0,0,1,.78-.65q10.21-5.75,20.42-11.5a1.6,1.6,0,0,1,1.76-.09q10.43,5.94,20.89,11.84a5.75,5.75,0,0,1,.58.49l-1.38.79c-6.56,3.68-13.12,7.34-19.67,11.05A2.11,2.11,0,0,1,516,229.6Zm1.32,25.49c.09-7.61.19-15.21.25-22.82a1.9,1.9,0,0,1,1-1.88c6.66-3.89,13.28-7.82,19.92-11.74.32-.19.67-.33,1.14-.56,0,.56.09,1,.09,1.4-.08,7.56-.19,15.12-.23,22.68a2.23,2.23,0,0,1-1.27,2.19c-6.54,3.8-13,7.66-19.56,11.5-.36.21-.75.39-1.26.65C517.33,255.94,517.27,255.52,517.28,255.1Zm43.78,2.7q-10.07,5.67-20.15,11.34a1.8,1.8,0,0,1-2,.08c-6.77-3.87-13.57-7.69-20.37-11.54-.25-.14-.47-.32-.93-.64l1.22-.7q10-5.63,20-11.26a1.78,1.78,0,0,1,2-.08c6.78,3.87,13.58,7.69,20.37,11.54.24.14.46.32.83.57C561.66,257.39,561.38,257.62,561.06,257.79Zm-19.3-38.92c6.42,3.8,12.83,7.63,19.28,11.4a2.21,2.21,0,0,1,1.28,2.17c0,7.52.11,15,.17,22.54,0,.47,0,.94-.06,1.58-.49-.23-.83-.37-1.15-.55q-10-5.89-19.9-11.78a1.64,1.64,0,0,1-1-1.57c0-7.85-.12-15.71-.19-23.56,0-.28.05-.56.1-1.06C540.91,218.4,541.34,218.62,541.76,218.87Zm20.62-15.66a1.47,1.47,0,0,1-.75,1.44q-10.36,6.08-20.69,12.2a5.53,5.53,0,0,1-.65.24c0-.64-.06-1.11-.05-1.58.08-7.52.19-15,.23-22.55a2.23,2.23,0,0,1,1.26-2.2c6.54-3.81,13.05-7.67,19.57-11.51l1.14-.66a5.58,5.58,0,0,1,.2,1Q562.52,191.42,562.38,203.21Zm-21-63.61,20.16,11.94a1.43,1.43,0,0,1,.9,1.34c0,8.06.12,16.11.18,24.17a2.69,2.69,0,0,1-.13.49c-3.75-2-7.31-4.27-10.94-6.4s-7.3-4.33-11-6.5c-.08-8.47-.15-16.85-.23-25.41A6.86,6.86,0,0,1,541.38,139.6Zm21.15-15.69a1.79,1.79,0,0,1-.94,1.79c-6.78,4-13.54,8-20.31,11.94-.2.12-.43.21-.85.4,0-.59-.06-1-.06-1.35.09-7.65.18-15.31.25-23a1.78,1.78,0,0,1,.95-1.77C548.31,108,555,104,561.75,100.07c.25-.15.52-.25.91-.45a9.72,9.72,0,0,1,.13,1.18C562.7,108.5,562.6,116.21,562.53,123.91Zm.09-50.85c.08,8.45.16,16.89.24,25.47a4.4,4.4,0,0,1-.88-.28L541.56,86.16a1.45,1.45,0,0,1-.85-1.38c0-8-.13-16-.19-24,0-.14,0-.28.1-.74ZM563,21.53c-.08,7.9-.18,15.8-.25,23.7a1.48,1.48,0,0,1-.79,1.43q-10.42,6.1-20.81,12.24a3.58,3.58,0,0,1-.49.15c0-.49-.07-.87-.06-1.24.08-7.7.18-15.41.25-23.12a1.68,1.68,0,0,1,.92-1.64q10.16-6,20.3-12c.21-.12.43-.21.75-.37A3.68,3.68,0,0,1,563,21.53Zm-43.48-2.32c6.59-3.7,13.2-7.39,19.77-11.12a2,2,0,0,1,2.27,0c6.6,3.78,13.24,7.5,19.86,11.25.37.21.7.47,1.17.78-.5.32-.84.57-1.21.77-6.59,3.71-13.19,7.4-19.76,11.14a2.23,2.23,0,0,1-2.53,0c-6.56-3.76-13.15-7.46-19.73-11.18-.37-.21-.7-.47-1.23-.83Zm-1.69,1.52a4,4,0,0,1,.83.25l20.41,12.08a1.45,1.45,0,0,1,.85,1.37c0,8,.13,16,.19,24a5.32,5.32,0,0,1-.1.66c-.52-.27-.91-.44-1.27-.66q-9.83-5.82-19.65-11.63A1.87,1.87,0,0,1,518,45c0-7.71-.12-15.42-.19-23.13C517.78,21.53,517.81,21.19,517.82,20.73Zm.65,26.79c6.78,3.87,13.57,7.7,20.37,11.53.24.14.47.32.84.57-.44.3-.77.57-1.12.76q-10,5.63-20,11.27a1.79,1.79,0,0,1-2,.08c-6.78-3.87-13.58-7.7-20.37-11.53-.25-.14-.47-.32-.94-.64l1.22-.7q10-5.62,20-11.26A1.79,1.79,0,0,1,518.47,47.52ZM517.3,21.94c-.09,7.65-.19,15.31-.25,23a1.79,1.79,0,0,1-.92,1.79c-6.78,4-13.54,8-20.31,11.94-.2.12-.43.21-.76.37a6.42,6.42,0,0,1-.16-1c.08-7.8.18-15.6.25-23.4A1.59,1.59,0,0,1,496,33Q506.31,27,516.64,20.87a5,5,0,0,1,.6-.23C517.26,21.18,517.3,21.56,517.3,21.94Zm-43.52-2.65c6.55-3.69,13.12-7.35,19.65-11.08a2.33,2.33,0,0,1,2.67,0c6.52,3.74,13.08,7.42,19.62,11.12.38.21.73.46,1.23.76a6,6,0,0,1-.81.67L495.7,32.25a1.58,1.58,0,0,1-1.76.07q-10.37-5.9-20.77-11.77c-.16-.09-.31-.23-.69-.52ZM494.2,33.57c.08,8.48.16,16.89.23,25.65L472.37,46.15c-.08-8.43-.16-16.85-.24-25.66ZM472.62,47.38Q483,53.31,493.49,59.21a5.61,5.61,0,0,1,.53.46l-1.38.79c-6.5,3.66-13,7.3-19.5,11a2.33,2.33,0,0,1-2.67,0c-6.55-3.77-13.14-7.46-19.72-11.19-.33-.19-.65-.41-1.09-.7a5,5,0,0,1,.67-.56Q460.65,53.23,471,47.43A1.46,1.46,0,0,1,472.62,47.38Zm-.94-25.5c-.08,7.71-.18,15.42-.25,23.14a1.79,1.79,0,0,1-.95,1.78c-6.7,3.92-13.38,7.88-20.06,11.82-.28.17-.59.29-1.08.52,0-.57-.07-.91-.07-1.25.09-7.71.19-15.42.25-23.13a1.91,1.91,0,0,1,1.08-1.86c6.66-3.89,13.3-7.82,19.95-11.73.28-.17.59-.29,1-.51A11.83,11.83,0,0,1,471.67,21.88Zm-43.94-2.45c6.72-3.78,13.45-7.55,20.16-11.35a2,2,0,0,1,2.28,0c6.65,3.8,13.33,7.56,20,11.33.33.19.63.42,1.18.78-1.24.71-2.24,1.3-3.25,1.87-5.87,3.3-11.76,6.57-17.61,9.91a2.44,2.44,0,0,1-2.79,0c-6.43-3.71-12.9-7.33-19.36-11l-1.5-.87A7.92,7.92,0,0,1,427.73,19.43Zm-1.21,1.15c.57.3,1,.49,1.4.73,6.47,3.83,12.92,7.69,19.42,11.48A2.2,2.2,0,0,1,448.61,35c0,7.52.11,15,.18,22.56,0,.47,0,.95-.06,1.6-.57-.3-1-.5-1.4-.73-6.47-3.83-12.93-7.69-19.42-11.48a2.21,2.21,0,0,1-1.26-2.18c0-7.52-.11-15-.18-22.56C426.46,21.7,426.49,21.23,426.52,20.58Zm1,27.12c6.51,3.75,13.07,7.42,19.61,11.12.38.21.74.45,1.22.75a4,4,0,0,1-.63.6Q437.36,66,427,71.8a1.48,1.48,0,0,1-1.63,0Q414.95,65.89,404.5,60a5.27,5.27,0,0,1-.52-.42c.49-.32.83-.57,1.2-.77,6.55-3.69,13.12-7.35,19.65-11.08A2.34,2.34,0,0,1,427.5,47.7ZM426,21.94c-.08,7.66-.18,15.33-.25,23a1.78,1.78,0,0,1-.92,1.79c-6.75,3.94-13.47,7.92-20.19,11.89-.24.14-.51.25-1,.49,0-.73,0-1.2,0-1.68.09-7.47.19-14.93.23-22.4a2.34,2.34,0,0,1,1.31-2.33c6.59-3.82,13.13-7.71,19.7-11.58.29-.17.6-.29,1.06-.51C425.92,21.13,426,21.54,426,21.94Zm-43.87-2.36,10.73-6v-.08L402.4,8.1a1.79,1.79,0,0,1,2-.08c6.77,3.87,13.58,7.69,20.37,11.53.25.14.47.32.83.57-.4.28-.69.51-1,.69q-10.07,5.66-20.15,11.34a1.79,1.79,0,0,1-2,.07q-4.8-2.74-9.61-5.45v0l-10.67-6c-.25-.14-.46-.32-.82-.57A8.67,8.67,0,0,1,382.11,19.58Zm5.12,4.7,15.65,9.27c.08,8.46.15,16.89.23,25.65l-5.25-3.11-5-3v0l-11.17-6.62a1.82,1.82,0,0,1-.52-.82q-.12-12.33-.23-24.72C381.64,21.18,384.13,22.53,387.23,24.29Zm-6.64,23a3.05,3.05,0,0,1,1.35.45q5.36,3.1,10.76,6.13v0l8.9,5c.33.19.64.42,1.2.78l-3,1.72-11.67,6.56-6.51,3.66a2.15,2.15,0,0,1-1.74.23,2.32,2.32,0,0,1-.26-.11C372.84,67.83,366,64,359.24,60.15c-.25-.14-.47-.32-.89-.61.52-.33.83-.56,1.16-.75,6.51-3.66,13-7.3,19.52-11A3.13,3.13,0,0,1,380.59,47.3Zm-.29-25.77c-.08,7.9-.18,15.8-.25,23.7a2.42,2.42,0,0,1,0,.26,2.12,2.12,0,0,1-1,1.32q-10.29,6-20.55,12.09a1.82,1.82,0,0,1-.35.11c0-.47-.06-.84-.06-1.2.08-7.7.18-15.41.25-23.12a1.68,1.68,0,0,1,.92-1.64q10.16-6,20.3-12c.18-.1.38-.19.62-.31A3.06,3.06,0,0,1,380.3,21.53Zm-44.56-1.62,1.23-.71c6.59-3.7,13.2-7.39,19.77-11.12a2.27,2.27,0,0,1,1.09-.33,2.36,2.36,0,0,1,1,.34c6.6,3.78,13.24,7.5,19.86,11.25.37.21.7.47,1.17.78-.5.32-.84.57-1.21.77-6.59,3.71-13.19,7.4-19.76,11.14a3.32,3.32,0,0,1-.51.23,2.34,2.34,0,0,1-.33.09H358a2,2,0,0,1-.85-.05,3.47,3.47,0,0,1-.64-.29c-6.56-3.76-13.15-7.46-19.73-11.18-.36-.2-.7-.46-1.22-.82Zm-.46.85A2.68,2.68,0,0,1,336,21l20.41,12.08a1.51,1.51,0,0,1,.79.9v0a1.81,1.81,0,0,1,.06.45c0,8,.13,16,.19,24a4.17,4.17,0,0,1-.09.59c-.45-.23-.81-.4-1.14-.59q-9.83-5.82-19.65-11.63a1.87,1.87,0,0,1-1.1-1.82c0-7.71-.12-15.42-.19-23.13C335.24,21.54,335.26,21.2,335.28,20.77Zm-.43,26.5.24,0,.17,0a2.13,2.13,0,0,1,.51.21c6.78,3.87,13.57,7.7,20.37,11.53.24.14.46.31.82.56l-.23.19a9.49,9.49,0,0,1-.88.59q-10,5.63-20,11.27a2.73,2.73,0,0,1-.77.3l-.19,0-.19,0-.2,0a2.15,2.15,0,0,1-.51-.21C327.2,67.87,320.4,64,313.61,60.2c-.25-.14-.47-.32-.94-.64l1.22-.7q10-5.62,20-11.26A2.48,2.48,0,0,1,334.86,47.26Zm-.24-25.32c-.09,7.65-.19,15.31-.25,23A2,2,0,0,1,334,46.2a1.71,1.71,0,0,1-.14.17,2.21,2.21,0,0,1-.23.17,2.78,2.78,0,0,1-.25.19c-6.75,3.93-13.47,7.91-20.21,11.88l-.53.27-.15.07a5.45,5.45,0,0,1-.15-.94c.08-7.8.18-15.6.25-23.4a1.59,1.59,0,0,1,.81-1.56Q323.77,27,334.1,20.87a2.87,2.87,0,0,1,.45-.18C334.58,21.2,334.62,21.58,334.62,21.94Zm-43.37-2.65c6.55-3.69,13.12-7.35,19.65-11.08a2.57,2.57,0,0,1,1.31-.39,2.79,2.79,0,0,1,1.21.41C319.93,12,326.49,15.64,333,19.34c.38.21.73.46,1.23.76a6,6,0,0,1-.81.67L313,32.25l-.26.12a1.62,1.62,0,0,1-1.06.08,1.82,1.82,0,0,1-.3-.12Q301,26.43,290.63,20.56c-.16-.09-.31-.23-.69-.52Zm-.53,2,20.8,12.33c.08,8.45.16,16.84.23,25.56l-21.92-13c-.08-8.39-.16-16.78-.24-25.53Zm-1,26a1.78,1.78,0,0,1,.25.11q10.43,5.93,20.87,11.83a3.78,3.78,0,0,1,.44.38,5.67,5.67,0,0,1-.74.56l-3.71,2.09-11.33,6.39-5.24,3a2.64,2.64,0,0,1-1,.31,2.57,2.57,0,0,1-1.28-.39c-6.55-3.77-13.14-7.46-19.72-11.19-.33-.19-.65-.41-1.09-.7a5,5,0,0,1,.67-.56q10.33-5.81,20.66-11.62a2.46,2.46,0,0,1,.36-.17A1.7,1.7,0,0,1,289.67,47.27ZM289,21.88c-.08,7.71-.18,15.42-.25,23.14a2.65,2.65,0,0,1-.13.81,2,2,0,0,1-.65.84l-.13.1-.11.07c-6.68,3.9-13.33,7.85-20,11.78-.25.15-.53.27-.94.46,0-.53-.07-.86-.07-1.18.09-7.71.19-15.42.25-23.13A1.91,1.91,0,0,1,268,32.89C274.7,29,281.34,25.08,288,21.16c.25-.15.53-.27.89-.44A10.42,10.42,0,0,1,289,21.88Zm-43.79-2.45c6.72-3.78,13.45-7.55,20.16-11.35a2.45,2.45,0,0,1,1.06-.36,2.2,2.2,0,0,1,1.07.33c6.65,3.8,13.33,7.56,20,11.33.3.17.59.38,1,.69a5.11,5.11,0,0,1-.52.47l-1.33.77-5.75,3.24c-4.38,2.46-8.77,4.91-13.13,7.4a3,3,0,0,1-1.34.46,2.68,2.68,0,0,1-1.31-.41c-6.43-3.71-12.9-7.33-19.36-11l-1.5-.87A7.9,7.9,0,0,1,245.19,19.43ZM244,20.65c.49.25.89.44,1.25.66,6.47,3.83,12.92,7.69,19.42,11.48A2.2,2.2,0,0,1,265.92,35c0,7.52.11,15,.18,22.56,0,.45,0,.91-.06,1.52-.49-.25-.89-.45-1.26-.66-6.47-3.83-12.93-7.69-19.42-11.48a2.21,2.21,0,0,1-1.26-2.18c0-7.52-.11-15-.18-22.56C243.92,21.72,244,21.27,244,20.65Zm-.43,26.65a2.65,2.65,0,0,1,1.27.4c6.51,3.75,13.07,7.42,19.61,11.12.38.21.74.45,1.22.75a4,4,0,0,1-.63.6Q254.67,66,244.33,71.8a1.82,1.82,0,0,1-.75.24,1.57,1.57,0,0,1-.73-.22L222,60a5.35,5.35,0,0,1-.52-.42c.49-.32.83-.57,1.2-.77,6.55-3.69,13.12-7.35,19.65-11.08A2.8,2.8,0,0,1,243.54,47.3Zm-.25-25.36c-.08,7.66-.18,15.33-.25,23a1.78,1.78,0,0,1-.92,1.79c-6.75,3.94-13.47,7.92-20.19,11.89-.22.13-.46.23-.86.42,0-.68,0-1.15,0-1.61.09-7.47.19-14.93.23-22.4a2.34,2.34,0,0,1,1.31-2.33c6.59-3.82,13.13-7.71,19.7-11.58.25-.15.54-.27.92-.45C243.24,21.16,243.3,21.55,243.29,21.94Zm-43.9-2.34.44-.25,2.91-1.64,7.4-4.16h0l9.71-5.46a2.44,2.44,0,0,1,.94-.34,1.79,1.79,0,0,1,.93.26c6.77,3.87,13.58,7.69,20.37,11.53.25.14.47.32.83.57-.4.28-.69.51-1,.69q-10.07,5.66-20.15,11.34a2.43,2.43,0,0,1-.94.34,1.8,1.8,0,0,1-.93-.26c-6.78-3.87-13.58-7.69-20.37-11.53-.23-.13-.45-.3-.85-.58C199,19.89,199.18,19.73,199.39,19.6Zm-1.05,1.31a38.21,38.21,0,0,1,3.72,1.9l18.13,10.75.23,25.56-5.1-3c-5.21-3.09-10.41-6.19-15.63-9.24a2.09,2.09,0,0,1-1.22-2.06c0-7.52-.11-15-.18-22.55C198.29,21.85,198.31,21.46,198.34,20.91Zm.19,26.47a3.1,3.1,0,0,1,.49.22c6.61,3.78,13.25,7.51,19.87,11.26.33.19.64.42,1.2.78l-3,1.72c-6,3.37-12,6.73-18,10.13a2.62,2.62,0,0,1-1.36.41,2.54,2.54,0,0,1-1-.36c-6.56-3.76-13.16-7.46-19.74-11.18-.37-.21-.73-.46-1.23-.77a9.88,9.88,0,0,1,1-.73c6.62-3.73,13.26-7.44,19.87-11.19l.11-.05.24-.11A2.36,2.36,0,0,1,198.54,47.38Zm-1-26.62c0,.54.08.92.08,1.3-.08,7.56-.2,15.12-.24,22.67a2.22,2.22,0,0,1-1.26,2.19c-6.45,3.75-12.87,7.57-19.3,11.36l-1.21.7-.19.05c0-.63-.06-1.07-.06-1.51.08-7.51.2-15,.23-22.53a2.23,2.23,0,0,1,1.27-2.18c6.45-3.76,12.86-7.57,19.29-11.37L197,21l.61-.3Zm-43.52-1.42,8.05-4.53L166,12.63q4.11-2.31,8.21-4.62a2.9,2.9,0,0,1,.31-.14,1.77,1.77,0,0,1,1.16,0,2.59,2.59,0,0,1,.4.18q10,5.73,20.11,11.39c.33.18.62.42,1.12.76l-1.38.8c-6.55,3.68-13.11,7.35-19.64,11.06a2.5,2.5,0,0,1-1.23.37,2.61,2.61,0,0,1-1.15-.37c-6.56-3.76-13.15-7.46-19.73-11.18-.37-.2-.71-.46-1.18-.78C153.45,19.75,153.74,19.52,154.07,19.34Zm-1.39,1.41.33.08a7,7,0,0,1,.67.34q9.95,5.88,19.91,11.77a1.76,1.76,0,0,1,1,1.73c0,7.71.13,15.42.19,23.13,0,.35,0,.71-.09,1.19-.39-.18-.71-.32-1-.49q-10-5.9-19.91-11.78a1.77,1.77,0,0,1-1-1.73c0-7.71-.12-15.42-.19-23.13C152.6,21.55,152.64,21.2,152.68,20.75Zm-.44,26.51a2,2,0,0,1,1,.3c6.69,3.82,13.41,7.6,20.11,11.39.29.16.56.36,1,.63a8.16,8.16,0,0,1-.82.63Q163.31,66,153.11,71.69a2.08,2.08,0,0,1-.88.3,1.8,1.8,0,0,1-.86-.26q-10.23-5.83-20.5-11.6c-.2-.12-.39-.27-.83-.59l1.31-.75q10-5.59,19.9-11.19a3.24,3.24,0,0,1,.52-.24l.14,0A1.79,1.79,0,0,1,152.24,47.26ZM152,21.92c-.08,7.66-.19,15.31-.24,23a1.91,1.91,0,0,1-1.06,1.87c-6.7,3.91-13.37,7.86-20.06,11.8-.22.13-.46.24-.76.38a5.14,5.14,0,0,1-.15-.94q.12-11.7.25-23.41a1.58,1.58,0,0,1,.81-1.55Q141.13,27,151.46,20.85a4.61,4.61,0,0,1,.45-.17C151.94,21.18,152,21.55,152,21.92Zm-43.47-2.59c6.59-3.71,13.2-7.4,19.78-11.15a3.58,3.58,0,0,1,.52-.24,2.42,2.42,0,0,1,.35-.1h0a2,2,0,0,1,.9.06,3.25,3.25,0,0,1,.59.26c6.56,3.76,13.16,7.47,19.75,11.19.37.21.72.46,1.22.78-.41.3-.68.55-1,.73q-10.09,5.66-20.17,11.33a2.16,2.16,0,0,1-1,.31,2,2,0,0,1-.9-.28q-10.18-5.8-20.38-11.54c-.24-.14-.46-.33-.92-.65ZM117.89,27c3.66,2.15,7.3,4.32,11,6.51.07,8.44.15,16.83.23,25.55l-21.91-13c-.08-8.39-.16-16.79-.24-25.49C110.78,22.74,114.31,24.94,117.89,27ZM106.52,47.21a2,2,0,0,1,1,.29c6.69,3.82,13.41,7.6,20.11,11.4.27.15.54.34.91.58l.06.05a7,7,0,0,1-.82.62q-10.2,5.76-20.4,11.5a2.67,2.67,0,0,1-.42.19,2,2,0,0,1-1,0,2.3,2.3,0,0,1-.28-.12L97.36,67v0l-11.84-6.7c-.33-.19-.65-.41-1.09-.7A5,5,0,0,1,85.1,59q10.23-5.76,20.46-11.51A2.41,2.41,0,0,1,106.52,47.21Zm-.24-26.52c0,.59.07,1,.07,1.49-.08,7.52-.19,15-.24,22.55a2.23,2.23,0,0,1-1.23,2.21q-3.84,2.24-7.66,4.5v.07l-12,7.1c-.28.17-.59.29-1.08.52,0-.57-.07-.91-.07-1.25.09-7.71.19-15.42.25-23.13a1.91,1.91,0,0,1,1.08-1.86q6-3.51,12-7.05h0l7.76-4.56C105.45,21.09,105.81,20.92,106.28,20.68ZM62.51,19.43C69.23,15.64,76,11.88,82.67,8.07a2,2,0,0,1,2.28,0q6.12,3.5,12.27,7v0l7.46,4.22c.38.21.74.45,1.22.75a4.33,4.33,0,0,1-.66.59l-8,4.52v.08q-6,3.35-11.95,6.74a2.44,2.44,0,0,1-2.79,0c-6.43-3.71-12.9-7.33-19.36-11l-1.5-.87A7.88,7.88,0,0,1,62.51,19.43Zm-1.21,1.15c.57.3,1,.49,1.4.73C69.16,25.14,75.62,29,82.11,32.79A2.2,2.2,0,0,1,83.38,35c0,7.52.11,15,.18,22.56,0,.47,0,.95-.06,1.6-.57-.3-1-.5-1.4-.73-6.47-3.83-12.93-7.69-19.42-11.48a2.21,2.21,0,0,1-1.26-2.18c0-7.52-.11-15-.18-22.56C61.23,21.7,61.27,21.23,61.29,20.58Zm1,27.12c6.51,3.75,13.07,7.42,19.61,11.12.38.21.74.45,1.22.75a4,4,0,0,1-.63.6Q72.13,66,61.79,71.8a1.48,1.48,0,0,1-1.63,0Q49.72,65.89,39.27,60a5.34,5.34,0,0,1-.52-.42c.49-.32.83-.57,1.2-.77,6.55-3.69,13.12-7.35,19.65-11.08A2.34,2.34,0,0,1,62.27,47.7ZM60.75,21.94c-.08,7.66-.18,15.33-.25,23a1.78,1.78,0,0,1-.92,1.79c-6.75,3.94-13.47,7.92-20.19,11.89-.24.14-.51.25-1,.49,0-.73,0-1.2,0-1.68.09-7.47.19-14.93.23-22.4a2.34,2.34,0,0,1,1.31-2.33C46.48,28.87,53,25,59.58,21.11c.29-.17.6-.29,1.06-.51C60.69,21.13,60.76,21.54,60.75,21.94Zm-43.6-2.59q10-5.63,20-11.26a1.79,1.79,0,0,1,2-.08C46,11.89,52.77,15.71,59.56,19.55c.25.14.47.32.83.57-.4.28-.69.51-1,.69Q49.31,26.48,39.24,32.15a1.79,1.79,0,0,1-2,.07c-6.78-3.87-13.58-7.69-20.37-11.53-.25-.14-.47-.32-.93-.64Zm-1.47,1.18,22,13,.23,25.65-5.25-3.11C27.42,53,22.22,49.9,17,46.85a2.09,2.09,0,0,1-1.22-2.06c0-7.52-.11-15-.18-22.55C15.6,21.77,15.64,21.3,15.67,20.53Z" style="fill:#ff4c29;fill-rule:evenodd"/></g></g></svg>